<svg width="1568" height="1277" viewBox="0 0 1568 1277" fill="none" xmlns="http://www.w3.org/2000/svg">
<rect x="842.5" y="709.5" width="725" height="63" fill="white" stroke="black"/>
<rect x="858.5" y="723.5" width="34" height="34" fill="white" stroke="black"/>
<rect x="1210.5" y="723.5" width="34" height="34" fill="white" stroke="black"/>
<rect x="1034.5" y="723.5" width="34" height="34" fill="white" stroke="black"/>
<rect x="1386.5" y="723.5" width="34" height="34" fill="white" stroke="black"/>
<rect x="946.5" y="723.5" width="34" height="34" fill="white" stroke="black"/>
<rect x="1298.5" y="723.5" width="34" height="34" fill="white" stroke="black"/>
<rect x="1122.5" y="723.5" width="34" height="34" fill="white" stroke="black"/>
<rect x="1474.5" y="723.5" width="34" height="34" fill="white" stroke="black"/>
<rect x="902.5" y="723.5" width="34" height="34" fill="white" stroke="black"/>
<rect x="1254.5" y="723.5" width="34" height="34" fill="white" stroke="black"/>
<rect x="1078.5" y="723.5" width="34" height="34" fill="white" stroke="black"/>
<rect x="1430.5" y="723.5" width="34" height="34" fill="white" stroke="black"/>
<rect x="990.5" y="723.5" width="34" height="34" fill="white" stroke="black"/>
<rect x="1342.5" y="723.5" width="34" height="34" fill="white" stroke="black"/>
<rect x="1166.5" y="723.5" width="34" height="34" fill="white" stroke="black"/>
<rect x="1518.5" y="723.5" width="34" height="34" fill="white" stroke="black"/>
<rect x="842.5" y="772.5" width="725" height="63" fill="white" stroke="black"/>
<rect x="858.5" y="786.5" width="34" height="34" fill="white" stroke="black"/>
<rect x="1210.5" y="786.5" width="34" height="34" fill="white" stroke="black"/>
<rect x="1034.5" y="786.5" width="34" height="34" fill="white" stroke="black"/>
<rect x="1386.5" y="786.5" width="34" height="34" fill="white" stroke="black"/>
<rect x="946.5" y="786.5" width="34" height="34" fill="white" stroke="black"/>
<rect x="1298.5" y="786.5" width="34" height="34" fill="white" stroke="black"/>
<rect x="1122.5" y="786.5" width="34" height="34" fill="white" stroke="black"/>
<rect x="1474.5" y="786.5" width="34" height="34" fill="white" stroke="black"/>
<rect x="902.5" y="786.5" width="34" height="34" fill="white" stroke="black"/>
<rect x="1254.5" y="786.5" width="34" height="34" fill="white" stroke="black"/>
<rect x="1078.5" y="786.5" width="34" height="34" fill="white" stroke="black"/>
<rect x="1430.5" y="786.5" width="34" height="34" fill="white" stroke="black"/>
<rect x="990.5" y="786.5" width="34" height="34" fill="white" stroke="black"/>
<rect x="1342.5" y="786.5" width="34" height="34" fill="white" stroke="black"/>
<rect x="1166.5" y="786.5" width="34" height="34" fill="white" stroke="black"/>
<rect x="1518.5" y="786.5" width="34" height="34" fill="white" stroke="black"/>
<rect x="842.5" y="835.5" width="725" height="63" fill="white" stroke="black"/>
<rect x="858.5" y="849.5" width="34" height="34" fill="white" stroke="black"/>
<rect x="1210.5" y="849.5" width="34" height="34" fill="white" stroke="black"/>
<rect x="1034.5" y="849.5" width="34" height="34" fill="white" stroke="black"/>
<rect x="1386.5" y="849.5" width="34" height="34" fill="white" stroke="black"/>
<rect x="946.5" y="849.5" width="34" height="34" fill="white" stroke="black"/>
<rect x="1298.5" y="849.5" width="34" height="34" fill="white" stroke="black"/>
<rect x="1122.5" y="849.5" width="34" height="34" fill="white" stroke="black"/>
<rect x="1474.5" y="849.5" width="34" height="34" fill="white" stroke="black"/>
<rect x="902.5" y="849.5" width="34" height="34" fill="white" stroke="black"/>
<rect x="1254.5" y="849.5" width="34" height="34" fill="white" stroke="black"/>
<rect x="1078.5" y="849.5" width="34" height="34" fill="white" stroke="black"/>
<rect x="1430.5" y="849.5" width="34" height="34" fill="white" stroke="black"/>
<rect x="990.5" y="849.5" width="34" height="34" fill="white" stroke="black"/>
<rect x="1342.5" y="849.5" width="34" height="34" fill="white" stroke="black"/>
<rect x="1166.5" y="849.5" width="34" height="34" fill="white" stroke="black"/>
<rect x="1518.5" y="849.5" width="34" height="34" fill="white" stroke="black"/>
<rect x="842.5" y="898.5" width="725" height="63" fill="white" stroke="black"/>
<rect x="858.5" y="912.5" width="34" height="34" fill="white" stroke="black"/>
<rect x="1210.5" y="912.5" width="34" height="34" fill="white" stroke="black"/>
<rect x="1034.5" y="912.5" width="34" height="34" fill="white" stroke="black"/>
<rect x="1386.5" y="912.5" width="34" height="34" fill="white" stroke="black"/>
<rect x="946.5" y="912.5" width="34" height="34" fill="white" stroke="black"/>
<rect x="1298.5" y="912.5" width="34" height="34" fill="white" stroke="black"/>
<rect x="1122.5" y="912.5" width="34" height="34" fill="white" stroke="black"/>
<rect x="1474.5" y="912.5" width="34" height="34" fill="white" stroke="black"/>
<rect x="902.5" y="912.5" width="34" height="34" fill="white" stroke="black"/>
<rect x="1254.5" y="912.5" width="34" height="34" fill="white" stroke="black"/>
<rect x="1078.5" y="912.5" width="34" height="34" fill="white" stroke="black"/>
<rect x="1430.5" y="912.5" width="34" height="34" fill="white" stroke="black"/>
<rect x="990.5" y="912.5" width="34" height="34" fill="white" stroke="black"/>
<rect x="1342.5" y="912.5" width="34" height="34" fill="white" stroke="black"/>
<rect x="1166.5" y="912.5" width="34" height="34" fill="white" stroke="black"/>
<rect x="1518.5" y="912.5" width="34" height="34" fill="white" stroke="black"/>
<rect x="842.5" y="961.5" width="725" height="63" fill="white" stroke="black"/>
<rect x="858.5" y="975.5" width="34" height="34" fill="white" stroke="black"/>
<rect x="1210.5" y="975.5" width="34" height="34" fill="white" stroke="black"/>
<rect x="1034.5" y="975.5" width="34" height="34" fill="white" stroke="black"/>
<rect x="1386.5" y="975.5" width="34" height="34" fill="white" stroke="black"/>
<rect x="946.5" y="975.5" width="34" height="34" fill="white" stroke="black"/>
<rect x="1298.5" y="975.5" width="34" height="34" fill="white" stroke="black"/>
<rect x="1122.5" y="975.5" width="34" height="34" fill="white" stroke="black"/>
<rect x="1474.5" y="975.5" width="34" height="34" fill="white" stroke="black"/>
<rect x="902.5" y="975.5" width="34" height="34" fill="white" stroke="black"/>
<rect x="1254.5" y="975.5" width="34" height="34" fill="white" stroke="black"/>
<rect x="1078.5" y="975.5" width="34" height="34" fill="white" stroke="black"/>
<rect x="1430.5" y="975.5" width="34" height="34" fill="white" stroke="black"/>
<rect x="990.5" y="975.5" width="34" height="34" fill="white" stroke="black"/>
<rect x="1342.5" y="975.5" width="34" height="34" fill="white" stroke="black"/>
<rect x="1166.5" y="975.5" width="34" height="34" fill="white" stroke="black"/>
<rect x="1518.5" y="975.5" width="34" height="34" fill="white" stroke="black"/>
<rect x="842.5" y="1024.5" width="725" height="63" fill="white" stroke="black"/>
<rect x="858.5" y="1038.5" width="34" height="34" fill="white" stroke="black"/>
<rect x="1210.5" y="1038.5" width="34" height="34" fill="white" stroke="black"/>
<rect x="1034.5" y="1038.5" width="34" height="34" fill="white" stroke="black"/>
<rect x="1386.5" y="1038.5" width="34" height="34" fill="white" stroke="black"/>
<rect x="946.5" y="1038.5" width="34" height="34" fill="white" stroke="black"/>
<rect x="1298.5" y="1038.5" width="34" height="34" fill="white" stroke="black"/>
<rect x="1122.5" y="1038.5" width="34" height="34" fill="white" stroke="black"/>
<rect x="1474.5" y="1038.5" width="34" height="34" fill="white" stroke="black"/>
<rect x="902.5" y="1038.5" width="34" height="34" fill="white" stroke="black"/>
<rect x="1254.5" y="1038.5" width="34" height="34" fill="white" stroke="black"/>
<rect x="1078.5" y="1038.5" width="34" height="34" fill="white" stroke="black"/>
<rect x="1430.5" y="1038.5" width="34" height="34" fill="white" stroke="black"/>
<rect x="990.5" y="1038.5" width="34" height="34" fill="white" stroke="black"/>
<rect x="1342.5" y="1038.5" width="34" height="34" fill="white" stroke="black"/>
<rect x="1166.5" y="1038.5" width="34" height="34" fill="white" stroke="black"/>
<rect x="1518.5" y="1038.5" width="34" height="34" fill="white" stroke="black"/>
<rect x="842.5" y="1087.5" width="725" height="63" fill="white" stroke="black"/>
<rect x="858.5" y="1101.5" width="34" height="34" fill="white" stroke="black"/>
<rect x="1210.5" y="1101.5" width="34" height="34" fill="white" stroke="black"/>
<rect x="1034.5" y="1101.5" width="34" height="34" fill="white" stroke="black"/>
<rect x="1386.5" y="1101.5" width="34" height="34" fill="white" stroke="black"/>
<rect x="946.5" y="1101.5" width="34" height="34" fill="white" stroke="black"/>
<rect x="1298.5" y="1101.5" width="34" height="34" fill="white" stroke="black"/>
<rect x="1122.5" y="1101.5" width="34" height="34" fill="white" stroke="black"/>
<rect x="1474.5" y="1101.5" width="34" height="34" fill="white" stroke="black"/>
<rect x="902.5" y="1101.5" width="34" height="34" fill="white" stroke="black"/>
<rect x="1254.5" y="1101.5" width="34" height="34" fill="white" stroke="black"/>
<rect x="1078.5" y="1101.5" width="34" height="34" fill="white" stroke="black"/>
<rect x="1430.5" y="1101.5" width="34" height="34" fill="white" stroke="black"/>
<rect x="990.5" y="1101.5" width="34" height="34" fill="white" stroke="black"/>
<rect x="1342.5" y="1101.5" width="34" height="34" fill="white" stroke="black"/>
<rect x="1166.5" y="1101.5" width="34" height="34" fill="white" stroke="black"/>
<rect x="1518.5" y="1101.5" width="34" height="34" fill="white" stroke="black"/>
<rect x="842.5" y="1150.5" width="725" height="63" fill="white" stroke="black"/>
<rect x="858.5" y="1164.5" width="34" height="34" fill="white" stroke="black"/>
<rect x="1210.5" y="1164.5" width="34" height="34" fill="white" stroke="black"/>
<rect x="1034.5" y="1164.5" width="34" height="34" fill="white" stroke="black"/>
<rect x="1386.5" y="1164.5" width="34" height="34" fill="white" stroke="black"/>
<rect x="946.5" y="1164.5" width="34" height="34" fill="white" stroke="black"/>
<rect x="1298.5" y="1164.5" width="34" height="34" fill="white" stroke="black"/>
<rect x="1122.5" y="1164.5" width="34" height="34" fill="white" stroke="black"/>
<rect x="1474.5" y="1164.5" width="34" height="34" fill="white" stroke="black"/>
<rect x="902.5" y="1164.5" width="34" height="34" fill="white" stroke="black"/>
<rect x="1254.5" y="1164.5" width="34" height="34" fill="white" stroke="black"/>
<rect x="1078.5" y="1164.5" width="34" height="34" fill="white" stroke="black"/>
<rect x="1430.5" y="1164.5" width="34" height="34" fill="white" stroke="black"/>
<rect x="990.5" y="1164.5" width="34" height="34" fill="white" stroke="black"/>
<rect x="1342.5" y="1164.5" width="34" height="34" fill="white" stroke="black"/>
<rect x="1166.5" y="1164.5" width="34" height="34" fill="white" stroke="black"/>
<rect x="1518.5" y="1164.5" width="34" height="34" fill="white" stroke="black"/>
<rect x="842.5" y="1213.5" width="725" height="63" fill="white" stroke="black"/>
<rect x="858.5" y="1227.5" width="34" height="34" fill="white" stroke="black"/>
<rect x="1210.5" y="1227.5" width="34" height="34" fill="white" stroke="black"/>
<rect x="1034.5" y="1227.5" width="34" height="34" fill="white" stroke="black"/>
<rect x="1386.5" y="1227.5" width="34" height="34" fill="white" stroke="black"/>
<rect x="946.5" y="1227.5" width="34" height="34" fill="white" stroke="black"/>
<rect x="1298.5" y="1227.5" width="34" height="34" fill="white" stroke="black"/>
<rect x="1122.5" y="1227.5" width="34" height="34" fill="white" stroke="black"/>
<rect x="1474.5" y="1227.5" width="34" height="34" fill="white" stroke="black"/>
<rect x="902.5" y="1227.5" width="34" height="34" fill="white" stroke="black"/>
<rect x="1254.5" y="1227.5" width="34" height="34" fill="white" stroke="black"/>
<rect x="1078.5" y="1227.5" width="34" height="34" fill="white" stroke="black"/>
<rect x="1430.5" y="1227.5" width="34" height="34" fill="white" stroke="black"/>
<rect x="990.5" y="1227.5" width="34" height="34" fill="white" stroke="black"/>
<rect x="1342.5" y="1227.5" width="34" height="34" fill="white" stroke="black"/>
<rect x="1166.5" y="1227.5" width="34" height="34" fill="white" stroke="black"/>
<rect x="1518.5" y="1227.5" width="34" height="34" fill="white" stroke="black"/>
<mask id="path-154-inside-1_5_897" fill="white">
<path d="M517.317 33L817.094 694.218L758.805 720.645L459.028 59.4267L517.317 33Z"/>
<path d="M511.173 53.3531L525.625 85.2301L493.748 99.6821L479.296 67.8052L511.173 53.3531Z"/>
<path d="M656.519 373.944L670.971 405.821L639.094 420.273L624.642 388.396L656.519 373.944Z"/>
<path d="M583.846 213.648L598.298 245.525L566.421 259.977L551.969 228.101L583.846 213.648Z"/>
<path d="M729.193 534.239L743.645 566.116L711.768 580.568L697.316 548.691L729.193 534.239Z"/>
<path d="M547.509 133.501L561.961 165.378L530.084 179.83L515.632 147.953L547.509 133.501Z"/>
<path d="M692.856 454.091L707.308 485.968L675.431 500.42L660.979 468.544L692.856 454.091Z"/>
<path d="M620.183 293.796L634.635 325.673L602.758 340.125L588.306 308.248L620.183 293.796Z"/>
<path d="M765.529 614.387L779.981 646.264L748.104 660.716L733.652 628.839L765.529 614.387Z"/>
<path d="M529.341 93.427L543.793 125.304L511.916 139.756L497.464 107.879L529.341 93.427Z"/>
<path d="M674.688 414.018L689.14 445.895L657.263 460.347L642.811 428.47L674.688 414.018Z"/>
<path d="M602.014 253.722L616.466 285.599L584.589 300.051L570.137 268.174L602.014 253.722Z"/>
<path d="M747.361 574.313L761.813 606.19L729.936 620.642L715.484 588.765L747.361 574.313Z"/>
<path d="M565.678 173.575L580.13 205.452L548.253 219.904L533.801 188.027L565.678 173.575Z"/>
<path d="M711.024 494.165L725.476 526.042L693.599 540.494L679.147 508.617L711.024 494.165Z"/>
<path d="M638.351 333.87L652.803 365.747L620.926 380.199L606.474 348.322L638.351 333.87Z"/>
<path d="M783.698 654.461L798.15 686.337L766.273 700.79L751.821 668.913L783.698 654.461Z"/>
<path d="M459.938 59.0138L759.716 720.232L701.427 746.659L401.649 85.4405L459.938 59.0138Z"/>
<path d="M453.794 79.3669L468.246 111.244L436.369 125.696L421.917 93.819L453.794 79.3669Z"/>
<path d="M599.141 399.958L613.593 431.835L581.716 446.287L567.264 414.41L599.141 399.958Z"/>
<path d="M526.468 239.662L540.92 271.539L509.043 285.991L494.591 254.114L526.468 239.662Z"/>
<path d="M671.814 560.253L686.266 592.13L654.389 606.582L639.937 574.705L671.814 560.253Z"/>
<path d="M490.131 159.515L504.583 191.391L472.706 205.844L458.254 173.967L490.131 159.515Z"/>
<path d="M635.477 480.105L649.93 511.982L618.053 526.434L603.601 494.557L635.477 480.105Z"/>
<path d="M562.804 319.81L577.256 351.687L545.379 366.139L530.927 334.262L562.804 319.81Z"/>
<path d="M708.151 640.401L722.603 672.277L690.726 686.73L676.274 654.853L708.151 640.401Z"/>
<path d="M471.963 119.441L486.415 151.318L454.538 165.77L440.086 133.893L471.963 119.441Z"/>
<path d="M617.309 440.031L631.761 471.908L599.884 486.36L585.432 454.483L617.309 440.031Z"/>
<path d="M544.636 279.736L559.088 311.613L527.211 326.065L512.759 294.188L544.636 279.736Z"/>
<path d="M689.982 600.327L704.435 632.204L672.558 646.656L658.106 614.779L689.982 600.327Z"/>
<path d="M508.299 199.588L522.751 231.465L490.874 245.917L476.422 214.041L508.299 199.588Z"/>
<path d="M653.646 520.179L668.098 552.056L636.221 566.508L621.769 534.631L653.646 520.179Z"/>
<path d="M580.972 359.884L595.425 391.761L563.548 406.213L549.096 374.336L580.972 359.884Z"/>
<path d="M726.319 680.474L740.771 712.351L708.894 726.803L694.442 694.926L726.319 680.474Z"/>
<path d="M402.56 85.0275L702.337 746.246L644.048 772.672L344.271 111.454L402.56 85.0275Z"/>
<path d="M396.416 105.381L410.868 137.258L378.991 151.71L364.539 119.833L396.416 105.381Z"/>
<path d="M541.762 425.971L556.214 457.848L524.338 472.3L509.885 440.423L541.762 425.971Z"/>
<path d="M469.089 265.676L483.541 297.553L451.664 312.005L437.212 280.128L469.089 265.676Z"/>
<path d="M614.436 586.267L628.888 618.143L597.011 632.596L582.559 600.719L614.436 586.267Z"/>
<path d="M432.752 185.528L447.204 217.405L415.328 231.857L400.875 199.98L432.752 185.528Z"/>
<path d="M578.099 506.119L592.551 537.996L560.674 552.448L546.222 520.571L578.099 506.119Z"/>
<path d="M505.426 345.824L519.878 377.701L488.001 392.153L473.549 360.276L505.426 345.824Z"/>
<path d="M650.772 666.414L665.224 698.291L633.347 712.743L618.895 680.866L650.772 666.414Z"/>
<path d="M414.584 145.454L429.036 177.331L397.159 191.783L382.707 159.907L414.584 145.454Z"/>
<path d="M559.931 466.045L574.383 497.922L542.506 512.374L528.054 480.497L559.931 466.045Z"/>
<path d="M487.257 305.75L501.709 337.627L469.833 352.079L455.38 320.202L487.257 305.75Z"/>
<path d="M632.604 626.34L647.056 658.217L615.179 672.669L600.727 640.792L632.604 626.34Z"/>
<path d="M450.921 225.602L465.373 257.479L433.496 271.931L419.044 240.054L450.921 225.602Z"/>
<path d="M596.267 546.193L610.719 578.07L578.843 592.522L564.39 560.645L596.267 546.193Z"/>
<path d="M523.594 385.897L538.046 417.774L506.169 432.226L491.717 400.349L523.594 385.897Z"/>
<path d="M668.941 706.488L683.393 738.365L651.516 752.817L637.064 720.94L668.941 706.488Z"/>
<path d="M345.181 111.041L644.959 772.259L586.67 798.686L286.892 137.468L345.181 111.041Z"/>
<path d="M339.037 131.394L353.489 163.271L321.612 177.723L307.16 145.846L339.037 131.394Z"/>
<path d="M484.384 451.985L498.836 483.862L466.959 498.314L452.507 466.437L484.384 451.985Z"/>
<path d="M411.711 291.69L426.163 323.567L394.286 338.019L379.834 306.142L411.711 291.69Z"/>
<path d="M557.057 612.28L571.509 644.157L539.632 658.609L525.18 626.732L557.057 612.28Z"/>
<path d="M375.374 211.542L389.826 243.419L357.949 257.871L343.497 225.994L375.374 211.542Z"/>
<path d="M520.721 532.133L535.173 564.01L503.296 578.462L488.844 546.585L520.721 532.133Z"/>
<path d="M448.047 371.837L462.499 403.714L430.622 418.166L416.17 386.289L448.047 371.837Z"/>
<path d="M593.394 692.428L607.846 724.305L575.969 738.757L561.517 706.88L593.394 692.428Z"/>
<path d="M357.206 171.468L371.658 203.345L339.781 217.797L325.329 185.92L357.206 171.468Z"/>
<path d="M502.552 492.059L517.004 523.936L485.127 538.388L470.675 506.511L502.552 492.059Z"/>
<path d="M429.879 331.764L444.331 363.64L412.454 378.093L398.002 346.216L429.879 331.764Z"/>
<path d="M575.226 652.354L589.678 684.231L557.801 698.683L543.349 666.806L575.226 652.354Z"/>
<path d="M393.542 251.616L407.994 283.493L376.117 297.945L361.665 266.068L393.542 251.616Z"/>
<path d="M538.889 572.207L553.341 604.083L521.464 618.536L507.012 586.659L538.889 572.207Z"/>
<path d="M466.216 411.911L480.668 443.788L448.791 458.24L434.339 426.363L466.216 411.911Z"/>
<path d="M611.562 732.502L626.014 764.379L594.137 778.831L579.685 746.954L611.562 732.502Z"/>
<path d="M287.803 137.055L587.58 798.273L529.291 824.7L229.514 163.482L287.803 137.055Z"/>
<path d="M281.659 157.408L296.111 189.285L264.234 203.737L249.782 171.86L281.659 157.408Z"/>
<path d="M427.006 477.999L441.458 509.876L409.581 524.328L395.129 492.451L427.006 477.999Z"/>
<path d="M354.332 317.703L368.784 349.58L336.907 364.032L322.455 332.155L354.332 317.703Z"/>
<path d="M499.679 638.294L514.131 670.171L482.254 684.623L467.802 652.746L499.679 638.294Z"/>
<path d="M317.996 237.556L332.448 269.433L300.571 283.885L286.119 252.008L317.996 237.556Z"/>
<path d="M463.342 558.146L477.794 590.023L445.917 604.475L431.465 572.598L463.342 558.146Z"/>
<path d="M390.669 397.851L405.121 429.728L373.244 444.18L358.792 412.303L390.669 397.851Z"/>
<path d="M536.015 718.442L550.468 750.319L518.591 764.771L504.139 732.894L536.015 718.442Z"/>
<path d="M299.827 197.482L314.279 229.359L282.402 243.811L267.95 211.934L299.827 197.482Z"/>
<path d="M445.174 518.073L459.626 549.949L427.749 564.401L413.297 532.525L445.174 518.073Z"/>
<path d="M372.501 357.777L386.953 389.654L355.076 404.106L340.624 372.229L372.501 357.777Z"/>
<path d="M517.847 678.368L532.299 710.245L500.422 724.697L485.97 692.82L517.847 678.368Z"/>
<path d="M336.164 277.63L350.616 309.507L318.739 323.959L304.287 292.082L336.164 277.63Z"/>
<path d="M481.511 598.22L495.963 630.097L464.086 644.549L449.634 612.672L481.511 598.22Z"/>
<path d="M408.837 437.925L423.289 469.802L391.412 484.254L376.96 452.377L408.837 437.925Z"/>
<path d="M554.184 758.516L568.636 790.392L536.759 804.844L522.307 772.968L554.184 758.516Z"/>
<path d="M230.425 163.069L530.202 824.287L471.913 850.714L172.135 189.495L230.425 163.069Z"/>
<path d="M224.28 183.422L238.732 215.299L206.856 229.751L192.404 197.874L224.28 183.422Z"/>
<path d="M369.627 504.013L384.079 535.889L352.202 550.341L337.75 518.465L369.627 504.013Z"/>
<path d="M296.954 343.717L311.406 375.594L279.529 390.046L265.077 358.169L296.954 343.717Z"/>
<path d="M442.3 664.308L456.752 696.185L424.875 710.637L410.423 678.76L442.3 664.308Z"/>
<path d="M260.617 263.57L275.069 295.446L243.192 309.898L228.74 278.022L260.617 263.57Z"/>
<path d="M405.964 584.16L420.416 616.037L388.539 630.489L374.087 598.612L405.964 584.16Z"/>
<path d="M333.29 423.865L347.742 455.742L315.866 470.194L301.413 438.317L333.29 423.865Z"/>
<path d="M478.637 744.455L493.089 776.332L461.212 790.784L446.76 758.908L478.637 744.455Z"/>
<path d="M242.449 223.496L256.901 255.373L225.024 269.825L210.572 237.948L242.449 223.496Z"/>
<path d="M387.795 544.086L402.247 575.963L370.371 590.415L355.918 558.538L387.795 544.086Z"/>
<path d="M315.122 383.791L329.574 415.668L297.697 430.12L283.245 398.243L315.122 383.791Z"/>
<path d="M460.469 704.382L474.921 736.259L443.044 750.711L428.592 718.834L460.469 704.382Z"/>
<path d="M278.785 303.643L293.237 335.52L261.361 349.972L246.909 318.095L278.785 303.643Z"/>
<path d="M424.132 624.234L438.584 656.111L406.707 670.563L392.255 638.686L424.132 624.234Z"/>
<path d="M351.459 463.939L365.911 495.816L334.034 510.268L319.582 478.391L351.459 463.939Z"/>
<path d="M496.805 784.529L511.257 816.406L479.38 830.858L464.928 798.981L496.805 784.529Z"/>
<path d="M173.046 189.082L472.823 850.301L414.534 876.727L114.757 215.509L173.046 189.082Z"/>
<path d="M166.902 209.436L181.354 241.313L149.477 255.765L135.025 223.888L166.902 209.436Z"/>
<path d="M312.249 530.026L326.701 561.903L294.824 576.355L280.372 544.478L312.249 530.026Z"/>
<path d="M239.575 369.731L254.027 401.608L222.151 416.06L207.698 384.183L239.575 369.731Z"/>
<path d="M384.922 690.322L399.374 722.198L367.497 736.651L353.045 704.774L384.922 690.322Z"/>
<path d="M203.239 289.583L217.691 321.46L185.814 335.912L171.362 304.035L203.239 289.583Z"/>
<path d="M348.585 610.174L363.037 642.051L331.16 656.503L316.708 624.626L348.585 610.174Z"/>
<path d="M275.912 449.879L290.364 481.756L258.487 496.208L244.035 464.331L275.912 449.879Z"/>
<path d="M421.259 770.469L435.711 802.346L403.834 816.798L389.382 784.921L421.259 770.469Z"/>
<path d="M185.07 249.509L199.522 281.386L167.646 295.838L153.193 263.961L185.07 249.509Z"/>
<path d="M330.417 570.1L344.869 601.977L312.992 616.429L298.54 584.552L330.417 570.1Z"/>
<path d="M257.744 409.805L272.196 441.682L240.319 456.134L225.867 424.257L257.744 409.805Z"/>
<path d="M403.09 730.395L417.542 762.272L385.665 776.724L371.213 744.847L403.09 730.395Z"/>
<path d="M221.407 329.657L235.859 361.534L203.982 375.986L189.53 344.109L221.407 329.657Z"/>
<path d="M366.754 650.248L381.206 682.125L349.329 696.577L334.877 664.7L366.754 650.248Z"/>
<path d="M294.08 489.952L308.532 521.829L276.655 536.281L262.203 504.404L294.08 489.952Z"/>
<path d="M439.427 810.543L453.879 842.42L422.002 856.872L407.55 824.995L439.427 810.543Z"/>
<path d="M115.668 215.096L415.445 876.314L357.156 902.741L57.3784 241.523L115.668 215.096Z"/>
<path d="M109.524 235.449L123.976 267.326L92.0987 281.778L77.6467 249.901L109.524 235.449Z"/>
<path d="M254.87 556.04L269.322 587.917L237.445 602.369L222.993 570.492L254.87 556.04Z"/>
<path d="M182.197 395.745L196.649 427.622L164.772 442.074L150.32 410.197L182.197 395.745Z"/>
<path d="M327.543 716.335L341.995 748.212L310.119 762.664L295.667 730.787L327.543 716.335Z"/>
<path d="M145.86 315.597L160.312 347.474L128.435 361.926L113.983 330.049L145.86 315.597Z"/>
<path d="M291.207 636.188L305.659 668.065L273.782 682.517L259.33 650.64L291.207 636.188Z"/>
<path d="M218.533 475.892L232.986 507.769L201.109 522.221L186.657 490.344L218.533 475.892Z"/>
<path d="M363.88 796.483L378.332 828.36L346.455 842.812L332.003 810.935L363.88 796.483Z"/>
<path d="M127.692 275.523L142.144 307.4L110.267 321.852L95.8149 289.975L127.692 275.523Z"/>
<path d="M273.038 596.114L287.491 627.991L255.614 642.443L241.162 610.566L273.038 596.114Z"/>
<path d="M200.365 435.818L214.817 467.695L182.94 482.147L168.488 450.271L200.365 435.818Z"/>
<path d="M345.712 756.409L360.164 788.286L328.287 802.738L313.835 770.861L345.712 756.409Z"/>
<path d="M164.029 355.671L178.481 387.548L146.604 402L132.152 370.123L164.029 355.671Z"/>
<path d="M309.375 676.261L323.827 708.138L291.95 722.59L277.498 690.714L309.375 676.261Z"/>
<path d="M236.702 515.966L251.154 547.843L219.277 562.295L204.825 530.418L236.702 515.966Z"/>
<path d="M382.048 836.557L396.5 868.434L364.624 882.886L350.172 851.009L382.048 836.557Z"/>
<path d="M58.2892 241.11L358.067 902.328L299.777 928.755L0 267.537L58.2892 241.11Z"/>
<path d="M52.1452 261.463L66.5972 293.34L34.7203 307.792L20.2683 275.915L52.1452 261.463Z"/>
<path d="M197.492 582.054L211.944 613.931L180.067 628.383L165.615 596.506L197.492 582.054Z"/>
<path d="M124.818 421.758L139.27 453.635L107.394 468.087L92.9415 436.21L124.818 421.758Z"/>
<path d="M270.165 742.349L284.617 774.226L252.74 788.678L238.288 756.801L270.165 742.349Z"/>
<path d="M88.4817 341.611L102.934 373.488L71.0569 387.94L56.6048 356.063L88.4817 341.611Z"/>
<path d="M233.828 662.201L248.28 694.078L216.404 708.53L201.951 676.653L233.828 662.201Z"/>
<path d="M161.155 501.906L175.607 533.783L143.73 548.235L129.278 516.358L161.155 501.906Z"/>
<path d="M306.502 822.497L320.954 854.374L289.077 868.826L274.625 836.949L306.502 822.497Z"/>
<path d="M70.3134 301.537L84.7655 333.414L52.8885 347.866L38.4365 315.989L70.3134 301.537Z"/>
<path d="M215.66 622.128L230.112 654.004L198.235 668.456L183.783 636.58L215.66 622.128Z"/>
<path d="M142.987 461.832L157.439 493.709L125.562 508.161L111.11 476.284L142.987 461.832Z"/>
<path d="M288.333 782.423L302.785 814.3L270.909 828.752L256.456 796.875L288.333 782.423Z"/>
<path d="M106.65 381.685L121.102 413.561L89.2252 428.014L74.7731 396.137L106.65 381.685Z"/>
<path d="M251.997 702.275L266.449 734.152L234.572 748.604L220.12 716.727L251.997 702.275Z"/>
<path d="M179.323 541.98L193.775 573.857L161.899 588.309L147.446 556.432L179.323 541.98Z"/>
<path d="M324.67 862.57L339.122 894.447L307.245 908.899L292.793 877.023L324.67 862.57Z"/>
</mask>
<path d="M517.317 33L817.094 694.218L758.805 720.645L459.028 59.4267L517.317 33Z" fill="white"/>
<path d="M511.173 53.3531L525.625 85.2301L493.748 99.6821L479.296 67.8052L511.173 53.3531Z" fill="white"/>
<path d="M656.519 373.944L670.971 405.821L639.094 420.273L624.642 388.396L656.519 373.944Z" fill="white"/>
<path d="M583.846 213.648L598.298 245.525L566.421 259.977L551.969 228.101L583.846 213.648Z" fill="white"/>
<path d="M729.193 534.239L743.645 566.116L711.768 580.568L697.316 548.691L729.193 534.239Z" fill="white"/>
<path d="M547.509 133.501L561.961 165.378L530.084 179.83L515.632 147.953L547.509 133.501Z" fill="white"/>
<path d="M692.856 454.091L707.308 485.968L675.431 500.42L660.979 468.544L692.856 454.091Z" fill="white"/>
<path d="M620.183 293.796L634.635 325.673L602.758 340.125L588.306 308.248L620.183 293.796Z" fill="white"/>
<path d="M765.529 614.387L779.981 646.264L748.104 660.716L733.652 628.839L765.529 614.387Z" fill="white"/>
<path d="M529.341 93.427L543.793 125.304L511.916 139.756L497.464 107.879L529.341 93.427Z" fill="white"/>
<path d="M674.688 414.018L689.14 445.895L657.263 460.347L642.811 428.47L674.688 414.018Z" fill="white"/>
<path d="M602.014 253.722L616.466 285.599L584.589 300.051L570.137 268.174L602.014 253.722Z" fill="white"/>
<path d="M747.361 574.313L761.813 606.19L729.936 620.642L715.484 588.765L747.361 574.313Z" fill="white"/>
<path d="M565.678 173.575L580.13 205.452L548.253 219.904L533.801 188.027L565.678 173.575Z" fill="white"/>
<path d="M711.024 494.165L725.476 526.042L693.599 540.494L679.147 508.617L711.024 494.165Z" fill="white"/>
<path d="M638.351 333.87L652.803 365.747L620.926 380.199L606.474 348.322L638.351 333.87Z" fill="white"/>
<path d="M783.698 654.461L798.15 686.337L766.273 700.79L751.821 668.913L783.698 654.461Z" fill="white"/>
<path d="M459.938 59.0138L759.716 720.232L701.427 746.659L401.649 85.4405L459.938 59.0138Z" fill="white"/>
<path d="M453.794 79.3669L468.246 111.244L436.369 125.696L421.917 93.819L453.794 79.3669Z" fill="white"/>
<path d="M599.141 399.958L613.593 431.835L581.716 446.287L567.264 414.41L599.141 399.958Z" fill="white"/>
<path d="M526.468 239.662L540.92 271.539L509.043 285.991L494.591 254.114L526.468 239.662Z" fill="white"/>
<path d="M671.814 560.253L686.266 592.13L654.389 606.582L639.937 574.705L671.814 560.253Z" fill="white"/>
<path d="M490.131 159.515L504.583 191.391L472.706 205.844L458.254 173.967L490.131 159.515Z" fill="white"/>
<path d="M635.477 480.105L649.93 511.982L618.053 526.434L603.601 494.557L635.477 480.105Z" fill="white"/>
<path d="M562.804 319.81L577.256 351.687L545.379 366.139L530.927 334.262L562.804 319.81Z" fill="white"/>
<path d="M708.151 640.401L722.603 672.277L690.726 686.73L676.274 654.853L708.151 640.401Z" fill="white"/>
<path d="M471.963 119.441L486.415 151.318L454.538 165.77L440.086 133.893L471.963 119.441Z" fill="white"/>
<path d="M617.309 440.031L631.761 471.908L599.884 486.36L585.432 454.483L617.309 440.031Z" fill="white"/>
<path d="M544.636 279.736L559.088 311.613L527.211 326.065L512.759 294.188L544.636 279.736Z" fill="white"/>
<path d="M689.982 600.327L704.435 632.204L672.558 646.656L658.106 614.779L689.982 600.327Z" fill="white"/>
<path d="M508.299 199.588L522.751 231.465L490.874 245.917L476.422 214.041L508.299 199.588Z" fill="white"/>
<path d="M653.646 520.179L668.098 552.056L636.221 566.508L621.769 534.631L653.646 520.179Z" fill="white"/>
<path d="M580.972 359.884L595.425 391.761L563.548 406.213L549.096 374.336L580.972 359.884Z" fill="white"/>
<path d="M726.319 680.474L740.771 712.351L708.894 726.803L694.442 694.926L726.319 680.474Z" fill="white"/>
<path d="M402.56 85.0275L702.337 746.246L644.048 772.672L344.271 111.454L402.56 85.0275Z" fill="white"/>
<path d="M396.416 105.381L410.868 137.258L378.991 151.71L364.539 119.833L396.416 105.381Z" fill="white"/>
<path d="M541.762 425.971L556.214 457.848L524.338 472.3L509.885 440.423L541.762 425.971Z" fill="white"/>
<path d="M469.089 265.676L483.541 297.553L451.664 312.005L437.212 280.128L469.089 265.676Z" fill="white"/>
<path d="M614.436 586.267L628.888 618.143L597.011 632.596L582.559 600.719L614.436 586.267Z" fill="white"/>
<path d="M432.752 185.528L447.204 217.405L415.328 231.857L400.875 199.98L432.752 185.528Z" fill="white"/>
<path d="M578.099 506.119L592.551 537.996L560.674 552.448L546.222 520.571L578.099 506.119Z" fill="white"/>
<path d="M505.426 345.824L519.878 377.701L488.001 392.153L473.549 360.276L505.426 345.824Z" fill="white"/>
<path d="M650.772 666.414L665.224 698.291L633.347 712.743L618.895 680.866L650.772 666.414Z" fill="white"/>
<path d="M414.584 145.454L429.036 177.331L397.159 191.783L382.707 159.907L414.584 145.454Z" fill="white"/>
<path d="M559.931 466.045L574.383 497.922L542.506 512.374L528.054 480.497L559.931 466.045Z" fill="white"/>
<path d="M487.257 305.75L501.709 337.627L469.833 352.079L455.38 320.202L487.257 305.75Z" fill="white"/>
<path d="M632.604 626.34L647.056 658.217L615.179 672.669L600.727 640.792L632.604 626.34Z" fill="white"/>
<path d="M450.921 225.602L465.373 257.479L433.496 271.931L419.044 240.054L450.921 225.602Z" fill="white"/>
<path d="M596.267 546.193L610.719 578.07L578.843 592.522L564.39 560.645L596.267 546.193Z" fill="white"/>
<path d="M523.594 385.897L538.046 417.774L506.169 432.226L491.717 400.349L523.594 385.897Z" fill="white"/>
<path d="M668.941 706.488L683.393 738.365L651.516 752.817L637.064 720.94L668.941 706.488Z" fill="white"/>
<path d="M345.181 111.041L644.959 772.259L586.67 798.686L286.892 137.468L345.181 111.041Z" fill="white"/>
<path d="M339.037 131.394L353.489 163.271L321.612 177.723L307.16 145.846L339.037 131.394Z" fill="white"/>
<path d="M484.384 451.985L498.836 483.862L466.959 498.314L452.507 466.437L484.384 451.985Z" fill="white"/>
<path d="M411.711 291.69L426.163 323.567L394.286 338.019L379.834 306.142L411.711 291.69Z" fill="white"/>
<path d="M557.057 612.28L571.509 644.157L539.632 658.609L525.18 626.732L557.057 612.28Z" fill="white"/>
<path d="M375.374 211.542L389.826 243.419L357.949 257.871L343.497 225.994L375.374 211.542Z" fill="white"/>
<path d="M520.721 532.133L535.173 564.01L503.296 578.462L488.844 546.585L520.721 532.133Z" fill="white"/>
<path d="M448.047 371.837L462.499 403.714L430.622 418.166L416.17 386.289L448.047 371.837Z" fill="white"/>
<path d="M593.394 692.428L607.846 724.305L575.969 738.757L561.517 706.88L593.394 692.428Z" fill="white"/>
<path d="M357.206 171.468L371.658 203.345L339.781 217.797L325.329 185.92L357.206 171.468Z" fill="white"/>
<path d="M502.552 492.059L517.004 523.936L485.127 538.388L470.675 506.511L502.552 492.059Z" fill="white"/>
<path d="M429.879 331.764L444.331 363.64L412.454 378.093L398.002 346.216L429.879 331.764Z" fill="white"/>
<path d="M575.226 652.354L589.678 684.231L557.801 698.683L543.349 666.806L575.226 652.354Z" fill="white"/>
<path d="M393.542 251.616L407.994 283.493L376.117 297.945L361.665 266.068L393.542 251.616Z" fill="white"/>
<path d="M538.889 572.207L553.341 604.083L521.464 618.536L507.012 586.659L538.889 572.207Z" fill="white"/>
<path d="M466.216 411.911L480.668 443.788L448.791 458.24L434.339 426.363L466.216 411.911Z" fill="white"/>
<path d="M611.562 732.502L626.014 764.379L594.137 778.831L579.685 746.954L611.562 732.502Z" fill="white"/>
<path d="M287.803 137.055L587.58 798.273L529.291 824.7L229.514 163.482L287.803 137.055Z" fill="white"/>
<path d="M281.659 157.408L296.111 189.285L264.234 203.737L249.782 171.86L281.659 157.408Z" fill="white"/>
<path d="M427.006 477.999L441.458 509.876L409.581 524.328L395.129 492.451L427.006 477.999Z" fill="white"/>
<path d="M354.332 317.703L368.784 349.58L336.907 364.032L322.455 332.155L354.332 317.703Z" fill="white"/>
<path d="M499.679 638.294L514.131 670.171L482.254 684.623L467.802 652.746L499.679 638.294Z" fill="white"/>
<path d="M317.996 237.556L332.448 269.433L300.571 283.885L286.119 252.008L317.996 237.556Z" fill="white"/>
<path d="M463.342 558.146L477.794 590.023L445.917 604.475L431.465 572.598L463.342 558.146Z" fill="white"/>
<path d="M390.669 397.851L405.121 429.728L373.244 444.18L358.792 412.303L390.669 397.851Z" fill="white"/>
<path d="M536.015 718.442L550.468 750.319L518.591 764.771L504.139 732.894L536.015 718.442Z" fill="white"/>
<path d="M299.827 197.482L314.279 229.359L282.402 243.811L267.95 211.934L299.827 197.482Z" fill="white"/>
<path d="M445.174 518.073L459.626 549.949L427.749 564.401L413.297 532.525L445.174 518.073Z" fill="white"/>
<path d="M372.501 357.777L386.953 389.654L355.076 404.106L340.624 372.229L372.501 357.777Z" fill="white"/>
<path d="M517.847 678.368L532.299 710.245L500.422 724.697L485.97 692.82L517.847 678.368Z" fill="white"/>
<path d="M336.164 277.63L350.616 309.507L318.739 323.959L304.287 292.082L336.164 277.63Z" fill="white"/>
<path d="M481.511 598.22L495.963 630.097L464.086 644.549L449.634 612.672L481.511 598.22Z" fill="white"/>
<path d="M408.837 437.925L423.289 469.802L391.412 484.254L376.96 452.377L408.837 437.925Z" fill="white"/>
<path d="M554.184 758.516L568.636 790.392L536.759 804.844L522.307 772.968L554.184 758.516Z" fill="white"/>
<path d="M230.425 163.069L530.202 824.287L471.913 850.714L172.135 189.495L230.425 163.069Z" fill="white"/>
<path d="M224.28 183.422L238.732 215.299L206.856 229.751L192.404 197.874L224.28 183.422Z" fill="white"/>
<path d="M369.627 504.013L384.079 535.889L352.202 550.341L337.75 518.465L369.627 504.013Z" fill="white"/>
<path d="M296.954 343.717L311.406 375.594L279.529 390.046L265.077 358.169L296.954 343.717Z" fill="white"/>
<path d="M442.3 664.308L456.752 696.185L424.875 710.637L410.423 678.76L442.3 664.308Z" fill="white"/>
<path d="M260.617 263.57L275.069 295.446L243.192 309.898L228.74 278.022L260.617 263.57Z" fill="white"/>
<path d="M405.964 584.16L420.416 616.037L388.539 630.489L374.087 598.612L405.964 584.16Z" fill="white"/>
<path d="M333.29 423.865L347.742 455.742L315.866 470.194L301.413 438.317L333.29 423.865Z" fill="white"/>
<path d="M478.637 744.455L493.089 776.332L461.212 790.784L446.76 758.908L478.637 744.455Z" fill="white"/>
<path d="M242.449 223.496L256.901 255.373L225.024 269.825L210.572 237.948L242.449 223.496Z" fill="white"/>
<path d="M387.795 544.086L402.247 575.963L370.371 590.415L355.918 558.538L387.795 544.086Z" fill="white"/>
<path d="M315.122 383.791L329.574 415.668L297.697 430.12L283.245 398.243L315.122 383.791Z" fill="white"/>
<path d="M460.469 704.382L474.921 736.259L443.044 750.711L428.592 718.834L460.469 704.382Z" fill="white"/>
<path d="M278.785 303.643L293.237 335.52L261.361 349.972L246.909 318.095L278.785 303.643Z" fill="white"/>
<path d="M424.132 624.234L438.584 656.111L406.707 670.563L392.255 638.686L424.132 624.234Z" fill="white"/>
<path d="M351.459 463.939L365.911 495.816L334.034 510.268L319.582 478.391L351.459 463.939Z" fill="white"/>
<path d="M496.805 784.529L511.257 816.406L479.38 830.858L464.928 798.981L496.805 784.529Z" fill="white"/>
<path d="M173.046 189.082L472.823 850.301L414.534 876.727L114.757 215.509L173.046 189.082Z" fill="white"/>
<path d="M166.902 209.436L181.354 241.313L149.477 255.765L135.025 223.888L166.902 209.436Z" fill="white"/>
<path d="M312.249 530.026L326.701 561.903L294.824 576.355L280.372 544.478L312.249 530.026Z" fill="white"/>
<path d="M239.575 369.731L254.027 401.608L222.151 416.06L207.698 384.183L239.575 369.731Z" fill="white"/>
<path d="M384.922 690.322L399.374 722.198L367.497 736.651L353.045 704.774L384.922 690.322Z" fill="white"/>
<path d="M203.239 289.583L217.691 321.46L185.814 335.912L171.362 304.035L203.239 289.583Z" fill="white"/>
<path d="M348.585 610.174L363.037 642.051L331.16 656.503L316.708 624.626L348.585 610.174Z" fill="white"/>
<path d="M275.912 449.879L290.364 481.756L258.487 496.208L244.035 464.331L275.912 449.879Z" fill="white"/>
<path d="M421.259 770.469L435.711 802.346L403.834 816.798L389.382 784.921L421.259 770.469Z" fill="white"/>
<path d="M185.07 249.509L199.522 281.386L167.646 295.838L153.193 263.961L185.07 249.509Z" fill="white"/>
<path d="M330.417 570.1L344.869 601.977L312.992 616.429L298.54 584.552L330.417 570.1Z" fill="white"/>
<path d="M257.744 409.805L272.196 441.682L240.319 456.134L225.867 424.257L257.744 409.805Z" fill="white"/>
<path d="M403.09 730.395L417.542 762.272L385.665 776.724L371.213 744.847L403.09 730.395Z" fill="white"/>
<path d="M221.407 329.657L235.859 361.534L203.982 375.986L189.53 344.109L221.407 329.657Z" fill="white"/>
<path d="M366.754 650.248L381.206 682.125L349.329 696.577L334.877 664.7L366.754 650.248Z" fill="white"/>
<path d="M294.08 489.952L308.532 521.829L276.655 536.281L262.203 504.404L294.08 489.952Z" fill="white"/>
<path d="M439.427 810.543L453.879 842.42L422.002 856.872L407.55 824.995L439.427 810.543Z" fill="white"/>
<path d="M115.668 215.096L415.445 876.314L357.156 902.741L57.3784 241.523L115.668 215.096Z" fill="white"/>
<path d="M109.524 235.449L123.976 267.326L92.0987 281.778L77.6467 249.901L109.524 235.449Z" fill="white"/>
<path d="M254.87 556.04L269.322 587.917L237.445 602.369L222.993 570.492L254.87 556.04Z" fill="white"/>
<path d="M182.197 395.745L196.649 427.622L164.772 442.074L150.32 410.197L182.197 395.745Z" fill="white"/>
<path d="M327.543 716.335L341.995 748.212L310.119 762.664L295.667 730.787L327.543 716.335Z" fill="white"/>
<path d="M145.86 315.597L160.312 347.474L128.435 361.926L113.983 330.049L145.86 315.597Z" fill="white"/>
<path d="M291.207 636.188L305.659 668.065L273.782 682.517L259.33 650.64L291.207 636.188Z" fill="white"/>
<path d="M218.533 475.892L232.986 507.769L201.109 522.221L186.657 490.344L218.533 475.892Z" fill="white"/>
<path d="M363.88 796.483L378.332 828.36L346.455 842.812L332.003 810.935L363.88 796.483Z" fill="white"/>
<path d="M127.692 275.523L142.144 307.4L110.267 321.852L95.8149 289.975L127.692 275.523Z" fill="white"/>
<path d="M273.038 596.114L287.491 627.991L255.614 642.443L241.162 610.566L273.038 596.114Z" fill="white"/>
<path d="M200.365 435.818L214.817 467.695L182.94 482.147L168.488 450.271L200.365 435.818Z" fill="white"/>
<path d="M345.712 756.409L360.164 788.286L328.287 802.738L313.835 770.861L345.712 756.409Z" fill="white"/>
<path d="M164.029 355.671L178.481 387.548L146.604 402L132.152 370.123L164.029 355.671Z" fill="white"/>
<path d="M309.375 676.261L323.827 708.138L291.95 722.59L277.498 690.714L309.375 676.261Z" fill="white"/>
<path d="M236.702 515.966L251.154 547.843L219.277 562.295L204.825 530.418L236.702 515.966Z" fill="white"/>
<path d="M382.048 836.557L396.5 868.434L364.624 882.886L350.172 851.009L382.048 836.557Z" fill="white"/>
<path d="M58.2892 241.11L358.067 902.328L299.777 928.755L0 267.537L58.2892 241.11Z" fill="white"/>
<path d="M52.1452 261.463L66.5972 293.34L34.7203 307.792L20.2683 275.915L52.1452 261.463Z" fill="white"/>
<path d="M197.492 582.054L211.944 613.931L180.067 628.383L165.615 596.506L197.492 582.054Z" fill="white"/>
<path d="M124.818 421.758L139.27 453.635L107.394 468.087L92.9415 436.21L124.818 421.758Z" fill="white"/>
<path d="M270.165 742.349L284.617 774.226L252.74 788.678L238.288 756.801L270.165 742.349Z" fill="white"/>
<path d="M88.4817 341.611L102.934 373.488L71.0569 387.94L56.6048 356.063L88.4817 341.611Z" fill="white"/>
<path d="M233.828 662.201L248.28 694.078L216.404 708.53L201.951 676.653L233.828 662.201Z" fill="white"/>
<path d="M161.155 501.906L175.607 533.783L143.73 548.235L129.278 516.358L161.155 501.906Z" fill="white"/>
<path d="M306.502 822.497L320.954 854.374L289.077 868.826L274.625 836.949L306.502 822.497Z" fill="white"/>
<path d="M70.3134 301.537L84.7655 333.414L52.8885 347.866L38.4365 315.989L70.3134 301.537Z" fill="white"/>
<path d="M215.66 622.128L230.112 654.004L198.235 668.456L183.783 636.58L215.66 622.128Z" fill="white"/>
<path d="M142.987 461.832L157.439 493.709L125.562 508.161L111.11 476.284L142.987 461.832Z" fill="white"/>
<path d="M288.333 782.423L302.785 814.3L270.909 828.752L256.456 796.875L288.333 782.423Z" fill="white"/>
<path d="M106.65 381.685L121.102 413.561L89.2252 428.014L74.7731 396.137L106.65 381.685Z" fill="white"/>
<path d="M251.997 702.275L266.449 734.152L234.572 748.604L220.12 716.727L251.997 702.275Z" fill="white"/>
<path d="M179.323 541.98L193.775 573.857L161.899 588.309L147.446 556.432L179.323 541.98Z" fill="white"/>
<path d="M324.67 862.57L339.122 894.447L307.245 908.899L292.793 877.023L324.67 862.57Z" fill="white"/>
<path d="M517.317 33L817.094 694.218L758.805 720.645L459.028 59.4267L517.317 33Z" stroke="black" stroke-width="2" mask="url(#path-154-inside-1_5_897)"/>
<path d="M511.173 53.3531L525.625 85.2301L493.748 99.6821L479.296 67.8052L511.173 53.3531Z" stroke="black" stroke-width="2" mask="url(#path-154-inside-1_5_897)"/>
<path d="M656.519 373.944L670.971 405.821L639.094 420.273L624.642 388.396L656.519 373.944Z" stroke="black" stroke-width="2" mask="url(#path-154-inside-1_5_897)"/>
<path d="M583.846 213.648L598.298 245.525L566.421 259.977L551.969 228.101L583.846 213.648Z" stroke="black" stroke-width="2" mask="url(#path-154-inside-1_5_897)"/>
<path d="M729.193 534.239L743.645 566.116L711.768 580.568L697.316 548.691L729.193 534.239Z" stroke="black" stroke-width="2" mask="url(#path-154-inside-1_5_897)"/>
<path d="M547.509 133.501L561.961 165.378L530.084 179.83L515.632 147.953L547.509 133.501Z" stroke="black" stroke-width="2" mask="url(#path-154-inside-1_5_897)"/>
<path d="M692.856 454.091L707.308 485.968L675.431 500.42L660.979 468.544L692.856 454.091Z" stroke="black" stroke-width="2" mask="url(#path-154-inside-1_5_897)"/>
<path d="M620.183 293.796L634.635 325.673L602.758 340.125L588.306 308.248L620.183 293.796Z" stroke="black" stroke-width="2" mask="url(#path-154-inside-1_5_897)"/>
<path d="M765.529 614.387L779.981 646.264L748.104 660.716L733.652 628.839L765.529 614.387Z" stroke="black" stroke-width="2" mask="url(#path-154-inside-1_5_897)"/>
<path d="M529.341 93.427L543.793 125.304L511.916 139.756L497.464 107.879L529.341 93.427Z" stroke="black" stroke-width="2" mask="url(#path-154-inside-1_5_897)"/>
<path d="M674.688 414.018L689.14 445.895L657.263 460.347L642.811 428.47L674.688 414.018Z" stroke="black" stroke-width="2" mask="url(#path-154-inside-1_5_897)"/>
<path d="M602.014 253.722L616.466 285.599L584.589 300.051L570.137 268.174L602.014 253.722Z" stroke="black" stroke-width="2" mask="url(#path-154-inside-1_5_897)"/>
<path d="M747.361 574.313L761.813 606.19L729.936 620.642L715.484 588.765L747.361 574.313Z" stroke="black" stroke-width="2" mask="url(#path-154-inside-1_5_897)"/>
<path d="M565.678 173.575L580.13 205.452L548.253 219.904L533.801 188.027L565.678 173.575Z" stroke="black" stroke-width="2" mask="url(#path-154-inside-1_5_897)"/>
<path d="M711.024 494.165L725.476 526.042L693.599 540.494L679.147 508.617L711.024 494.165Z" stroke="black" stroke-width="2" mask="url(#path-154-inside-1_5_897)"/>
<path d="M638.351 333.87L652.803 365.747L620.926 380.199L606.474 348.322L638.351 333.87Z" stroke="black" stroke-width="2" mask="url(#path-154-inside-1_5_897)"/>
<path d="M783.698 654.461L798.15 686.337L766.273 700.79L751.821 668.913L783.698 654.461Z" stroke="black" stroke-width="2" mask="url(#path-154-inside-1_5_897)"/>
<path d="M459.938 59.0138L759.716 720.232L701.427 746.659L401.649 85.4405L459.938 59.0138Z" stroke="black" stroke-width="2" mask="url(#path-154-inside-1_5_897)"/>
<path d="M453.794 79.3669L468.246 111.244L436.369 125.696L421.917 93.819L453.794 79.3669Z" stroke="black" stroke-width="2" mask="url(#path-154-inside-1_5_897)"/>
<path d="M599.141 399.958L613.593 431.835L581.716 446.287L567.264 414.41L599.141 399.958Z" stroke="black" stroke-width="2" mask="url(#path-154-inside-1_5_897)"/>
<path d="M526.468 239.662L540.92 271.539L509.043 285.991L494.591 254.114L526.468 239.662Z" stroke="black" stroke-width="2" mask="url(#path-154-inside-1_5_897)"/>
<path d="M671.814 560.253L686.266 592.13L654.389 606.582L639.937 574.705L671.814 560.253Z" stroke="black" stroke-width="2" mask="url(#path-154-inside-1_5_897)"/>
<path d="M490.131 159.515L504.583 191.391L472.706 205.844L458.254 173.967L490.131 159.515Z" stroke="black" stroke-width="2" mask="url(#path-154-inside-1_5_897)"/>
<path d="M635.477 480.105L649.93 511.982L618.053 526.434L603.601 494.557L635.477 480.105Z" stroke="black" stroke-width="2" mask="url(#path-154-inside-1_5_897)"/>
<path d="M562.804 319.81L577.256 351.687L545.379 366.139L530.927 334.262L562.804 319.81Z" stroke="black" stroke-width="2" mask="url(#path-154-inside-1_5_897)"/>
<path d="M708.151 640.401L722.603 672.277L690.726 686.73L676.274 654.853L708.151 640.401Z" stroke="black" stroke-width="2" mask="url(#path-154-inside-1_5_897)"/>
<path d="M471.963 119.441L486.415 151.318L454.538 165.77L440.086 133.893L471.963 119.441Z" stroke="black" stroke-width="2" mask="url(#path-154-inside-1_5_897)"/>
<path d="M617.309 440.031L631.761 471.908L599.884 486.36L585.432 454.483L617.309 440.031Z" stroke="black" stroke-width="2" mask="url(#path-154-inside-1_5_897)"/>
<path d="M544.636 279.736L559.088 311.613L527.211 326.065L512.759 294.188L544.636 279.736Z" stroke="black" stroke-width="2" mask="url(#path-154-inside-1_5_897)"/>
<path d="M689.982 600.327L704.435 632.204L672.558 646.656L658.106 614.779L689.982 600.327Z" stroke="black" stroke-width="2" mask="url(#path-154-inside-1_5_897)"/>
<path d="M508.299 199.588L522.751 231.465L490.874 245.917L476.422 214.041L508.299 199.588Z" stroke="black" stroke-width="2" mask="url(#path-154-inside-1_5_897)"/>
<path d="M653.646 520.179L668.098 552.056L636.221 566.508L621.769 534.631L653.646 520.179Z" stroke="black" stroke-width="2" mask="url(#path-154-inside-1_5_897)"/>
<path d="M580.972 359.884L595.425 391.761L563.548 406.213L549.096 374.336L580.972 359.884Z" stroke="black" stroke-width="2" mask="url(#path-154-inside-1_5_897)"/>
<path d="M726.319 680.474L740.771 712.351L708.894 726.803L694.442 694.926L726.319 680.474Z" stroke="black" stroke-width="2" mask="url(#path-154-inside-1_5_897)"/>
<path d="M402.56 85.0275L702.337 746.246L644.048 772.672L344.271 111.454L402.56 85.0275Z" stroke="black" stroke-width="2" mask="url(#path-154-inside-1_5_897)"/>
<path d="M396.416 105.381L410.868 137.258L378.991 151.71L364.539 119.833L396.416 105.381Z" stroke="black" stroke-width="2" mask="url(#path-154-inside-1_5_897)"/>
<path d="M541.762 425.971L556.214 457.848L524.338 472.3L509.885 440.423L541.762 425.971Z" stroke="black" stroke-width="2" mask="url(#path-154-inside-1_5_897)"/>
<path d="M469.089 265.676L483.541 297.553L451.664 312.005L437.212 280.128L469.089 265.676Z" stroke="black" stroke-width="2" mask="url(#path-154-inside-1_5_897)"/>
<path d="M614.436 586.267L628.888 618.143L597.011 632.596L582.559 600.719L614.436 586.267Z" stroke="black" stroke-width="2" mask="url(#path-154-inside-1_5_897)"/>
<path d="M432.752 185.528L447.204 217.405L415.328 231.857L400.875 199.98L432.752 185.528Z" stroke="black" stroke-width="2" mask="url(#path-154-inside-1_5_897)"/>
<path d="M578.099 506.119L592.551 537.996L560.674 552.448L546.222 520.571L578.099 506.119Z" stroke="black" stroke-width="2" mask="url(#path-154-inside-1_5_897)"/>
<path d="M505.426 345.824L519.878 377.701L488.001 392.153L473.549 360.276L505.426 345.824Z" stroke="black" stroke-width="2" mask="url(#path-154-inside-1_5_897)"/>
<path d="M650.772 666.414L665.224 698.291L633.347 712.743L618.895 680.866L650.772 666.414Z" stroke="black" stroke-width="2" mask="url(#path-154-inside-1_5_897)"/>
<path d="M414.584 145.454L429.036 177.331L397.159 191.783L382.707 159.907L414.584 145.454Z" stroke="black" stroke-width="2" mask="url(#path-154-inside-1_5_897)"/>
<path d="M559.931 466.045L574.383 497.922L542.506 512.374L528.054 480.497L559.931 466.045Z" stroke="black" stroke-width="2" mask="url(#path-154-inside-1_5_897)"/>
<path d="M487.257 305.75L501.709 337.627L469.833 352.079L455.38 320.202L487.257 305.75Z" stroke="black" stroke-width="2" mask="url(#path-154-inside-1_5_897)"/>
<path d="M632.604 626.34L647.056 658.217L615.179 672.669L600.727 640.792L632.604 626.34Z" stroke="black" stroke-width="2" mask="url(#path-154-inside-1_5_897)"/>
<path d="M450.921 225.602L465.373 257.479L433.496 271.931L419.044 240.054L450.921 225.602Z" stroke="black" stroke-width="2" mask="url(#path-154-inside-1_5_897)"/>
<path d="M596.267 546.193L610.719 578.07L578.843 592.522L564.39 560.645L596.267 546.193Z" stroke="black" stroke-width="2" mask="url(#path-154-inside-1_5_897)"/>
<path d="M523.594 385.897L538.046 417.774L506.169 432.226L491.717 400.349L523.594 385.897Z" stroke="black" stroke-width="2" mask="url(#path-154-inside-1_5_897)"/>
<path d="M668.941 706.488L683.393 738.365L651.516 752.817L637.064 720.94L668.941 706.488Z" stroke="black" stroke-width="2" mask="url(#path-154-inside-1_5_897)"/>
<path d="M345.181 111.041L644.959 772.259L586.67 798.686L286.892 137.468L345.181 111.041Z" stroke="black" stroke-width="2" mask="url(#path-154-inside-1_5_897)"/>
<path d="M339.037 131.394L353.489 163.271L321.612 177.723L307.16 145.846L339.037 131.394Z" stroke="black" stroke-width="2" mask="url(#path-154-inside-1_5_897)"/>
<path d="M484.384 451.985L498.836 483.862L466.959 498.314L452.507 466.437L484.384 451.985Z" stroke="black" stroke-width="2" mask="url(#path-154-inside-1_5_897)"/>
<path d="M411.711 291.69L426.163 323.567L394.286 338.019L379.834 306.142L411.711 291.69Z" stroke="black" stroke-width="2" mask="url(#path-154-inside-1_5_897)"/>
<path d="M557.057 612.28L571.509 644.157L539.632 658.609L525.18 626.732L557.057 612.28Z" stroke="black" stroke-width="2" mask="url(#path-154-inside-1_5_897)"/>
<path d="M375.374 211.542L389.826 243.419L357.949 257.871L343.497 225.994L375.374 211.542Z" stroke="black" stroke-width="2" mask="url(#path-154-inside-1_5_897)"/>
<path d="M520.721 532.133L535.173 564.01L503.296 578.462L488.844 546.585L520.721 532.133Z" stroke="black" stroke-width="2" mask="url(#path-154-inside-1_5_897)"/>
<path d="M448.047 371.837L462.499 403.714L430.622 418.166L416.17 386.289L448.047 371.837Z" stroke="black" stroke-width="2" mask="url(#path-154-inside-1_5_897)"/>
<path d="M593.394 692.428L607.846 724.305L575.969 738.757L561.517 706.88L593.394 692.428Z" stroke="black" stroke-width="2" mask="url(#path-154-inside-1_5_897)"/>
<path d="M357.206 171.468L371.658 203.345L339.781 217.797L325.329 185.92L357.206 171.468Z" stroke="black" stroke-width="2" mask="url(#path-154-inside-1_5_897)"/>
<path d="M502.552 492.059L517.004 523.936L485.127 538.388L470.675 506.511L502.552 492.059Z" stroke="black" stroke-width="2" mask="url(#path-154-inside-1_5_897)"/>
<path d="M429.879 331.764L444.331 363.64L412.454 378.093L398.002 346.216L429.879 331.764Z" stroke="black" stroke-width="2" mask="url(#path-154-inside-1_5_897)"/>
<path d="M575.226 652.354L589.678 684.231L557.801 698.683L543.349 666.806L575.226 652.354Z" stroke="black" stroke-width="2" mask="url(#path-154-inside-1_5_897)"/>
<path d="M393.542 251.616L407.994 283.493L376.117 297.945L361.665 266.068L393.542 251.616Z" stroke="black" stroke-width="2" mask="url(#path-154-inside-1_5_897)"/>
<path d="M538.889 572.207L553.341 604.083L521.464 618.536L507.012 586.659L538.889 572.207Z" stroke="black" stroke-width="2" mask="url(#path-154-inside-1_5_897)"/>
<path d="M466.216 411.911L480.668 443.788L448.791 458.24L434.339 426.363L466.216 411.911Z" stroke="black" stroke-width="2" mask="url(#path-154-inside-1_5_897)"/>
<path d="M611.562 732.502L626.014 764.379L594.137 778.831L579.685 746.954L611.562 732.502Z" stroke="black" stroke-width="2" mask="url(#path-154-inside-1_5_897)"/>
<path d="M287.803 137.055L587.58 798.273L529.291 824.7L229.514 163.482L287.803 137.055Z" stroke="black" stroke-width="2" mask="url(#path-154-inside-1_5_897)"/>
<path d="M281.659 157.408L296.111 189.285L264.234 203.737L249.782 171.86L281.659 157.408Z" stroke="black" stroke-width="2" mask="url(#path-154-inside-1_5_897)"/>
<path d="M427.006 477.999L441.458 509.876L409.581 524.328L395.129 492.451L427.006 477.999Z" stroke="black" stroke-width="2" mask="url(#path-154-inside-1_5_897)"/>
<path d="M354.332 317.703L368.784 349.58L336.907 364.032L322.455 332.155L354.332 317.703Z" stroke="black" stroke-width="2" mask="url(#path-154-inside-1_5_897)"/>
<path d="M499.679 638.294L514.131 670.171L482.254 684.623L467.802 652.746L499.679 638.294Z" stroke="black" stroke-width="2" mask="url(#path-154-inside-1_5_897)"/>
<path d="M317.996 237.556L332.448 269.433L300.571 283.885L286.119 252.008L317.996 237.556Z" stroke="black" stroke-width="2" mask="url(#path-154-inside-1_5_897)"/>
<path d="M463.342 558.146L477.794 590.023L445.917 604.475L431.465 572.598L463.342 558.146Z" stroke="black" stroke-width="2" mask="url(#path-154-inside-1_5_897)"/>
<path d="M390.669 397.851L405.121 429.728L373.244 444.18L358.792 412.303L390.669 397.851Z" stroke="black" stroke-width="2" mask="url(#path-154-inside-1_5_897)"/>
<path d="M536.015 718.442L550.468 750.319L518.591 764.771L504.139 732.894L536.015 718.442Z" stroke="black" stroke-width="2" mask="url(#path-154-inside-1_5_897)"/>
<path d="M299.827 197.482L314.279 229.359L282.402 243.811L267.95 211.934L299.827 197.482Z" stroke="black" stroke-width="2" mask="url(#path-154-inside-1_5_897)"/>
<path d="M445.174 518.073L459.626 549.949L427.749 564.401L413.297 532.525L445.174 518.073Z" stroke="black" stroke-width="2" mask="url(#path-154-inside-1_5_897)"/>
<path d="M372.501 357.777L386.953 389.654L355.076 404.106L340.624 372.229L372.501 357.777Z" stroke="black" stroke-width="2" mask="url(#path-154-inside-1_5_897)"/>
<path d="M517.847 678.368L532.299 710.245L500.422 724.697L485.97 692.82L517.847 678.368Z" stroke="black" stroke-width="2" mask="url(#path-154-inside-1_5_897)"/>
<path d="M336.164 277.63L350.616 309.507L318.739 323.959L304.287 292.082L336.164 277.63Z" stroke="black" stroke-width="2" mask="url(#path-154-inside-1_5_897)"/>
<path d="M481.511 598.22L495.963 630.097L464.086 644.549L449.634 612.672L481.511 598.22Z" stroke="black" stroke-width="2" mask="url(#path-154-inside-1_5_897)"/>
<path d="M408.837 437.925L423.289 469.802L391.412 484.254L376.96 452.377L408.837 437.925Z" stroke="black" stroke-width="2" mask="url(#path-154-inside-1_5_897)"/>
<path d="M554.184 758.516L568.636 790.392L536.759 804.844L522.307 772.968L554.184 758.516Z" stroke="black" stroke-width="2" mask="url(#path-154-inside-1_5_897)"/>
<path d="M230.425 163.069L530.202 824.287L471.913 850.714L172.135 189.495L230.425 163.069Z" stroke="black" stroke-width="2" mask="url(#path-154-inside-1_5_897)"/>
<path d="M224.28 183.422L238.732 215.299L206.856 229.751L192.404 197.874L224.28 183.422Z" stroke="black" stroke-width="2" mask="url(#path-154-inside-1_5_897)"/>
<path d="M369.627 504.013L384.079 535.889L352.202 550.341L337.75 518.465L369.627 504.013Z" stroke="black" stroke-width="2" mask="url(#path-154-inside-1_5_897)"/>
<path d="M296.954 343.717L311.406 375.594L279.529 390.046L265.077 358.169L296.954 343.717Z" stroke="black" stroke-width="2" mask="url(#path-154-inside-1_5_897)"/>
<path d="M442.3 664.308L456.752 696.185L424.875 710.637L410.423 678.76L442.3 664.308Z" stroke="black" stroke-width="2" mask="url(#path-154-inside-1_5_897)"/>
<path d="M260.617 263.57L275.069 295.446L243.192 309.898L228.74 278.022L260.617 263.57Z" stroke="black" stroke-width="2" mask="url(#path-154-inside-1_5_897)"/>
<path d="M405.964 584.16L420.416 616.037L388.539 630.489L374.087 598.612L405.964 584.16Z" stroke="black" stroke-width="2" mask="url(#path-154-inside-1_5_897)"/>
<path d="M333.29 423.865L347.742 455.742L315.866 470.194L301.413 438.317L333.29 423.865Z" stroke="black" stroke-width="2" mask="url(#path-154-inside-1_5_897)"/>
<path d="M478.637 744.455L493.089 776.332L461.212 790.784L446.76 758.908L478.637 744.455Z" stroke="black" stroke-width="2" mask="url(#path-154-inside-1_5_897)"/>
<path d="M242.449 223.496L256.901 255.373L225.024 269.825L210.572 237.948L242.449 223.496Z" stroke="black" stroke-width="2" mask="url(#path-154-inside-1_5_897)"/>
<path d="M387.795 544.086L402.247 575.963L370.371 590.415L355.918 558.538L387.795 544.086Z" stroke="black" stroke-width="2" mask="url(#path-154-inside-1_5_897)"/>
<path d="M315.122 383.791L329.574 415.668L297.697 430.12L283.245 398.243L315.122 383.791Z" stroke="black" stroke-width="2" mask="url(#path-154-inside-1_5_897)"/>
<path d="M460.469 704.382L474.921 736.259L443.044 750.711L428.592 718.834L460.469 704.382Z" stroke="black" stroke-width="2" mask="url(#path-154-inside-1_5_897)"/>
<path d="M278.785 303.643L293.237 335.52L261.361 349.972L246.909 318.095L278.785 303.643Z" stroke="black" stroke-width="2" mask="url(#path-154-inside-1_5_897)"/>
<path d="M424.132 624.234L438.584 656.111L406.707 670.563L392.255 638.686L424.132 624.234Z" stroke="black" stroke-width="2" mask="url(#path-154-inside-1_5_897)"/>
<path d="M351.459 463.939L365.911 495.816L334.034 510.268L319.582 478.391L351.459 463.939Z" stroke="black" stroke-width="2" mask="url(#path-154-inside-1_5_897)"/>
<path d="M496.805 784.529L511.257 816.406L479.38 830.858L464.928 798.981L496.805 784.529Z" stroke="black" stroke-width="2" mask="url(#path-154-inside-1_5_897)"/>
<path d="M173.046 189.082L472.823 850.301L414.534 876.727L114.757 215.509L173.046 189.082Z" stroke="black" stroke-width="2" mask="url(#path-154-inside-1_5_897)"/>
<path d="M166.902 209.436L181.354 241.313L149.477 255.765L135.025 223.888L166.902 209.436Z" stroke="black" stroke-width="2" mask="url(#path-154-inside-1_5_897)"/>
<path d="M312.249 530.026L326.701 561.903L294.824 576.355L280.372 544.478L312.249 530.026Z" stroke="black" stroke-width="2" mask="url(#path-154-inside-1_5_897)"/>
<path d="M239.575 369.731L254.027 401.608L222.151 416.06L207.698 384.183L239.575 369.731Z" stroke="black" stroke-width="2" mask="url(#path-154-inside-1_5_897)"/>
<path d="M384.922 690.322L399.374 722.198L367.497 736.651L353.045 704.774L384.922 690.322Z" stroke="black" stroke-width="2" mask="url(#path-154-inside-1_5_897)"/>
<path d="M203.239 289.583L217.691 321.46L185.814 335.912L171.362 304.035L203.239 289.583Z" stroke="black" stroke-width="2" mask="url(#path-154-inside-1_5_897)"/>
<path d="M348.585 610.174L363.037 642.051L331.16 656.503L316.708 624.626L348.585 610.174Z" stroke="black" stroke-width="2" mask="url(#path-154-inside-1_5_897)"/>
<path d="M275.912 449.879L290.364 481.756L258.487 496.208L244.035 464.331L275.912 449.879Z" stroke="black" stroke-width="2" mask="url(#path-154-inside-1_5_897)"/>
<path d="M421.259 770.469L435.711 802.346L403.834 816.798L389.382 784.921L421.259 770.469Z" stroke="black" stroke-width="2" mask="url(#path-154-inside-1_5_897)"/>
<path d="M185.07 249.509L199.522 281.386L167.646 295.838L153.193 263.961L185.07 249.509Z" stroke="black" stroke-width="2" mask="url(#path-154-inside-1_5_897)"/>
<path d="M330.417 570.1L344.869 601.977L312.992 616.429L298.54 584.552L330.417 570.1Z" stroke="black" stroke-width="2" mask="url(#path-154-inside-1_5_897)"/>
<path d="M257.744 409.805L272.196 441.682L240.319 456.134L225.867 424.257L257.744 409.805Z" stroke="black" stroke-width="2" mask="url(#path-154-inside-1_5_897)"/>
<path d="M403.09 730.395L417.542 762.272L385.665 776.724L371.213 744.847L403.09 730.395Z" stroke="black" stroke-width="2" mask="url(#path-154-inside-1_5_897)"/>
<path d="M221.407 329.657L235.859 361.534L203.982 375.986L189.53 344.109L221.407 329.657Z" stroke="black" stroke-width="2" mask="url(#path-154-inside-1_5_897)"/>
<path d="M366.754 650.248L381.206 682.125L349.329 696.577L334.877 664.7L366.754 650.248Z" stroke="black" stroke-width="2" mask="url(#path-154-inside-1_5_897)"/>
<path d="M294.08 489.952L308.532 521.829L276.655 536.281L262.203 504.404L294.08 489.952Z" stroke="black" stroke-width="2" mask="url(#path-154-inside-1_5_897)"/>
<path d="M439.427 810.543L453.879 842.42L422.002 856.872L407.55 824.995L439.427 810.543Z" stroke="black" stroke-width="2" mask="url(#path-154-inside-1_5_897)"/>
<path d="M115.668 215.096L415.445 876.314L357.156 902.741L57.3784 241.523L115.668 215.096Z" stroke="black" stroke-width="2" mask="url(#path-154-inside-1_5_897)"/>
<path d="M109.524 235.449L123.976 267.326L92.0987 281.778L77.6467 249.901L109.524 235.449Z" stroke="black" stroke-width="2" mask="url(#path-154-inside-1_5_897)"/>
<path d="M254.87 556.04L269.322 587.917L237.445 602.369L222.993 570.492L254.87 556.04Z" stroke="black" stroke-width="2" mask="url(#path-154-inside-1_5_897)"/>
<path d="M182.197 395.745L196.649 427.622L164.772 442.074L150.32 410.197L182.197 395.745Z" stroke="black" stroke-width="2" mask="url(#path-154-inside-1_5_897)"/>
<path d="M327.543 716.335L341.995 748.212L310.119 762.664L295.667 730.787L327.543 716.335Z" stroke="black" stroke-width="2" mask="url(#path-154-inside-1_5_897)"/>
<path d="M145.86 315.597L160.312 347.474L128.435 361.926L113.983 330.049L145.86 315.597Z" stroke="black" stroke-width="2" mask="url(#path-154-inside-1_5_897)"/>
<path d="M291.207 636.188L305.659 668.065L273.782 682.517L259.33 650.64L291.207 636.188Z" stroke="black" stroke-width="2" mask="url(#path-154-inside-1_5_897)"/>
<path d="M218.533 475.892L232.986 507.769L201.109 522.221L186.657 490.344L218.533 475.892Z" stroke="black" stroke-width="2" mask="url(#path-154-inside-1_5_897)"/>
<path d="M363.88 796.483L378.332 828.36L346.455 842.812L332.003 810.935L363.88 796.483Z" stroke="black" stroke-width="2" mask="url(#path-154-inside-1_5_897)"/>
<path d="M127.692 275.523L142.144 307.4L110.267 321.852L95.8149 289.975L127.692 275.523Z" stroke="black" stroke-width="2" mask="url(#path-154-inside-1_5_897)"/>
<path d="M273.038 596.114L287.491 627.991L255.614 642.443L241.162 610.566L273.038 596.114Z" stroke="black" stroke-width="2" mask="url(#path-154-inside-1_5_897)"/>
<path d="M200.365 435.818L214.817 467.695L182.94 482.147L168.488 450.271L200.365 435.818Z" stroke="black" stroke-width="2" mask="url(#path-154-inside-1_5_897)"/>
<path d="M345.712 756.409L360.164 788.286L328.287 802.738L313.835 770.861L345.712 756.409Z" stroke="black" stroke-width="2" mask="url(#path-154-inside-1_5_897)"/>
<path d="M164.029 355.671L178.481 387.548L146.604 402L132.152 370.123L164.029 355.671Z" stroke="black" stroke-width="2" mask="url(#path-154-inside-1_5_897)"/>
<path d="M309.375 676.261L323.827 708.138L291.95 722.59L277.498 690.714L309.375 676.261Z" stroke="black" stroke-width="2" mask="url(#path-154-inside-1_5_897)"/>
<path d="M236.702 515.966L251.154 547.843L219.277 562.295L204.825 530.418L236.702 515.966Z" stroke="black" stroke-width="2" mask="url(#path-154-inside-1_5_897)"/>
<path d="M382.048 836.557L396.5 868.434L364.624 882.886L350.172 851.009L382.048 836.557Z" stroke="black" stroke-width="2" mask="url(#path-154-inside-1_5_897)"/>
<path d="M58.2892 241.11L358.067 902.328L299.777 928.755L0 267.537L58.2892 241.11Z" stroke="black" stroke-width="2" mask="url(#path-154-inside-1_5_897)"/>
<path d="M52.1452 261.463L66.5972 293.34L34.7203 307.792L20.2683 275.915L52.1452 261.463Z" stroke="black" stroke-width="2" mask="url(#path-154-inside-1_5_897)"/>
<path d="M197.492 582.054L211.944 613.931L180.067 628.383L165.615 596.506L197.492 582.054Z" stroke="black" stroke-width="2" mask="url(#path-154-inside-1_5_897)"/>
<path d="M124.818 421.758L139.27 453.635L107.394 468.087L92.9415 436.21L124.818 421.758Z" stroke="black" stroke-width="2" mask="url(#path-154-inside-1_5_897)"/>
<path d="M270.165 742.349L284.617 774.226L252.74 788.678L238.288 756.801L270.165 742.349Z" stroke="black" stroke-width="2" mask="url(#path-154-inside-1_5_897)"/>
<path d="M88.4817 341.611L102.934 373.488L71.0569 387.94L56.6048 356.063L88.4817 341.611Z" stroke="black" stroke-width="2" mask="url(#path-154-inside-1_5_897)"/>
<path d="M233.828 662.201L248.28 694.078L216.404 708.53L201.951 676.653L233.828 662.201Z" stroke="black" stroke-width="2" mask="url(#path-154-inside-1_5_897)"/>
<path d="M161.155 501.906L175.607 533.783L143.73 548.235L129.278 516.358L161.155 501.906Z" stroke="black" stroke-width="2" mask="url(#path-154-inside-1_5_897)"/>
<path d="M306.502 822.497L320.954 854.374L289.077 868.826L274.625 836.949L306.502 822.497Z" stroke="black" stroke-width="2" mask="url(#path-154-inside-1_5_897)"/>
<path d="M70.3134 301.537L84.7655 333.414L52.8885 347.866L38.4365 315.989L70.3134 301.537Z" stroke="black" stroke-width="2" mask="url(#path-154-inside-1_5_897)"/>
<path d="M215.66 622.128L230.112 654.004L198.235 668.456L183.783 636.58L215.66 622.128Z" stroke="black" stroke-width="2" mask="url(#path-154-inside-1_5_897)"/>
<path d="M142.987 461.832L157.439 493.709L125.562 508.161L111.11 476.284L142.987 461.832Z" stroke="black" stroke-width="2" mask="url(#path-154-inside-1_5_897)"/>
<path d="M288.333 782.423L302.785 814.3L270.909 828.752L256.456 796.875L288.333 782.423Z" stroke="black" stroke-width="2" mask="url(#path-154-inside-1_5_897)"/>
<path d="M106.65 381.685L121.102 413.561L89.2252 428.014L74.7731 396.137L106.65 381.685Z" stroke="black" stroke-width="2" mask="url(#path-154-inside-1_5_897)"/>
<path d="M251.997 702.275L266.449 734.152L234.572 748.604L220.12 716.727L251.997 702.275Z" stroke="black" stroke-width="2" mask="url(#path-154-inside-1_5_897)"/>
<path d="M179.323 541.98L193.775 573.857L161.899 588.309L147.446 556.432L179.323 541.98Z" stroke="black" stroke-width="2" mask="url(#path-154-inside-1_5_897)"/>
<path d="M324.67 862.57L339.122 894.447L307.245 908.899L292.793 877.023L324.67 862.57Z" stroke="black" stroke-width="2" mask="url(#path-154-inside-1_5_897)"/>
<path d="M1497 283C1497 439.297 1368.51 566 1210 566C1051.49 566 923 439.297 923 283C923 126.703 1051.49 0 1210 0C1368.51 0 1497 126.703 1497 283Z" fill="#2A5375"/>
</svg>
