<svg width="513" height="435" viewBox="0 0 513 435" fill="none" xmlns="http://www.w3.org/2000/svg">
<path d="M203.592 255.561L235.048 227.731L255.589 250.948L224.133 278.778L203.592 255.561Z" fill="#D9D9D9"/>
<path d="M172.136 283.391L203.592 255.561L224.133 278.778L192.677 306.608L172.136 283.391Z" fill="#D9D9D9"/>
<path d="M20.6438 397.392L162.196 272.156L182.738 295.374L25.0825 434.856L20.6438 397.392Z" fill="#D9D9D9"/>
<path d="M20.6438 397.392L162.196 272.156L182.738 295.374L25.0825 434.856L20.6438 397.392Z" fill="#D9D9D9"/>
<path d="M15.2329 360.788L141.655 248.939L162.196 272.156L21.3927 396.729L15.2329 360.788Z" fill="#D9D9D9"/>
<path d="M15.2329 360.788L141.655 248.939L162.196 272.156L21.3927 396.729L15.2329 360.788Z" fill="#D9D9D9"/>
<path d="M235.048 227.731L266.504 199.901L287.045 223.118L255.589 250.948L235.048 227.731Z" fill="#D9D9D9"/>
<path d="M297.96 172.071L329.416 144.241L349.958 167.458L318.501 195.288L297.96 172.071Z" fill="#D9D9D9"/>
<path d="M360.873 116.41L491.94 0.45195L512.481 23.6696L381.414 139.628L360.873 116.41Z" fill="#D9D9D9"/>
<path d="M329.416 144.241L360.873 116.41L381.414 139.628L349.958 167.458L329.416 144.241Z" fill="#D9D9D9"/>
<path d="M266.504 199.901L297.96 172.071L318.501 195.288L287.045 223.118L266.504 199.901Z" fill="#D9D9D9"/>
<path d="M203.592 255.561L235.048 227.731L255.589 250.948L224.133 278.778L203.592 255.561Z" fill="#D9D9D9"/>
<path d="M172.136 283.391L203.592 255.561L224.133 278.778L192.677 306.608L172.136 283.391Z" fill="#D9D9D9"/>
<path d="M20.6438 397.392L162.196 272.156L182.738 295.374L25.0825 434.856L20.6438 397.392Z" fill="#D9D9D9"/>
<path d="M20.6438 397.392L162.196 272.156L182.738 295.374L25.0825 434.856L20.6438 397.392Z" fill="#D9D9D9"/>
<path d="M15.2329 360.788L141.655 248.939L162.196 272.156L21.3927 396.729L15.2329 360.788Z" fill="#D9D9D9"/>
<path d="M15.2329 360.788L141.655 248.939L162.196 272.156L21.3927 396.729L15.2329 360.788Z" fill="#D9D9D9"/>
<path d="M235.048 227.731L266.504 199.901L287.045 223.118L255.589 250.948L235.048 227.731Z" fill="#D9D9D9"/>
<path d="M297.96 172.071L329.416 144.241L349.958 167.458L318.501 195.288L297.96 172.071Z" fill="#D9D9D9"/>
<path d="M360.873 116.41L491.94 0.45195L512.481 23.6696L381.414 139.628L360.873 116.41Z" fill="#D9D9D9"/>
<path d="M329.416 144.241L360.873 116.41L381.414 139.628L349.958 167.458L329.416 144.241Z" fill="#D9D9D9"/>
<path d="M266.504 199.901L297.96 172.071L318.501 195.288L287.045 223.118L266.504 199.901Z" fill="#D9D9D9"/>
</svg>
