<svg width="1280" height="1855" viewBox="0 0 1280 1855" fill="none" xmlns="http://www.w3.org/2000/svg">
<path d="M656.841 2.27277L756.118 12.7073C767.315 13.8841 778.357 16.2311 789.063 19.71L884.002 50.5575C894.709 54.0364 905.022 58.6279 914.772 64.2569L1001.22 114.169C1010.97 119.798 1020.1 126.433 1028.47 133.966L1102.66 200.762C1111.02 208.295 1118.57 216.684 1125.19 225.792L1183.87 306.552C1190.48 315.66 1196.13 325.436 1200.71 335.721L1241.31 426.915C1245.89 437.2 1249.38 447.936 1251.72 458.948L1272.47 556.591C1274.81 567.603 1275.99 578.83 1275.99 590.088V689.912C1275.99 701.17 1274.81 712.397 1272.47 723.409L1251.72 821.052C1249.38 832.064 1245.89 842.8 1241.31 853.085L1200.71 944.279C1196.13 954.564 1190.48 964.34 1183.87 973.448L1125.19 1054.21C1118.57 1063.32 1111.02 1071.7 1102.66 1079.24L1028.47 1146.03C1020.1 1153.57 1010.97 1160.2 1001.22 1165.83L914.772 1215.74C905.022 1221.37 894.709 1225.96 884.002 1229.44L789.063 1260.29C778.357 1263.77 767.315 1266.12 756.118 1267.29L656.841 1277.73C645.644 1278.9 634.356 1278.9 623.159 1277.73L523.882 1267.29C512.685 1266.12 501.643 1263.77 490.937 1260.29L395.998 1229.44C385.291 1225.96 374.978 1221.37 365.228 1215.74L278.778 1165.83C269.028 1160.2 259.895 1153.57 251.529 1146.03L177.345 1079.24C168.979 1071.7 161.425 1063.32 154.808 1054.21L96.1323 973.448C89.5151 964.34 83.8707 954.564 79.2917 944.279L38.6894 853.085C34.1104 842.8 30.622 832.064 28.2814 821.052L7.52663 723.409C5.18598 712.397 4.00598 701.17 4.00598 689.912V590.088C4.00598 578.83 5.18598 567.603 7.52662 556.591L28.2814 458.948C30.622 447.936 34.1104 437.2 38.6894 426.915L79.2917 335.721C83.8707 325.436 89.5151 315.66 96.1323 306.552L154.808 225.792C161.425 216.684 168.979 208.295 177.345 200.762L251.529 133.966C259.895 126.433 269.028 119.798 278.778 114.169L365.228 64.2569C374.978 58.6279 385.291 54.0364 395.998 50.5575L490.936 19.71C501.643 16.2311 512.685 13.8841 523.882 12.7073L623.159 2.27277C634.356 1.096 645.644 1.096 656.841 2.27277Z" fill="#D9D9D9" stroke="#FF0000"/>
<path d="M225.57 1369L273.751 1382.36L260.386 1430.55L212.206 1417.18L225.57 1369Z" fill="white"/>
<path d="M207.929 1432.6L256.11 1445.96L242.745 1494.14L194.564 1480.78L207.929 1432.6Z" fill="white"/>
<path d="M190.288 1496.2L238.469 1509.56L225.104 1557.74L176.923 1544.38L190.288 1496.2Z" fill="white"/>
<path d="M172.647 1559.8L220.828 1573.16L207.463 1621.34L159.282 1607.98L172.647 1559.8Z" fill="white"/>
<path d="M155.006 1623.39L203.186 1636.76L189.822 1684.94L141.641 1671.58L155.006 1623.39Z" fill="white"/>
<path d="M137.364 1686.99L185.545 1700.36L172.181 1748.54L124 1735.17L137.364 1686.99Z" fill="white"/>
<path d="M289.169 1386.64L337.35 1400.01L323.985 1448.19L275.804 1434.82L289.169 1386.64Z" fill="white"/>
<path d="M271.528 1450.24L319.708 1463.6L306.344 1511.79L258.163 1498.42L271.528 1450.24Z" fill="white"/>
<path d="M253.887 1513.84L302.067 1527.2L288.703 1575.38L240.522 1562.02L253.887 1513.84Z" fill="white"/>
<path d="M236.245 1577.44L284.426 1590.8L271.062 1638.98L222.881 1625.62L236.245 1577.44Z" fill="white"/>
<path d="M218.604 1641.04L266.785 1654.4L253.421 1702.58L205.24 1689.22L218.604 1641.04Z" fill="white"/>
<path d="M200.963 1704.63L249.144 1718L235.779 1766.18L187.599 1752.82L200.963 1704.63Z" fill="white"/>
<path d="M352.767 1404.28L400.948 1417.65L387.584 1465.83L339.403 1452.46L352.767 1404.28Z" fill="#FF0909"/>
<path d="M335.126 1467.88L383.307 1481.25L369.943 1529.43L321.762 1516.06L335.126 1467.88Z" fill="white"/>
<path d="M317.485 1531.48L365.666 1544.84L352.302 1593.02L304.121 1579.66L317.485 1531.48Z" fill="white"/>
<path d="M299.844 1595.08L348.025 1608.44L334.66 1656.62L286.48 1643.26L299.844 1595.08Z" fill="white"/>
<path d="M282.203 1658.68L330.384 1672.04L317.019 1720.22L268.838 1706.86L282.203 1658.68Z" fill="white"/>
<path d="M264.562 1722.28L312.743 1735.64L299.378 1783.82L251.197 1770.46L264.562 1722.28Z" fill="white"/>
<path d="M416.366 1421.92L464.547 1435.29L451.182 1483.47L403.002 1470.1L416.366 1421.92Z" fill="white"/>
<path d="M398.725 1485.52L446.906 1498.89L433.541 1547.07L385.36 1533.7L398.725 1485.52Z" fill="white"/>
<path d="M381.084 1549.12L429.265 1562.49L415.9 1610.67L367.719 1597.3L381.084 1549.12Z" fill="white"/>
<path d="M363.443 1612.72L411.624 1626.08L398.259 1674.26L350.078 1660.9L363.443 1612.72Z" fill="white"/>
<path d="M345.802 1676.32L393.982 1689.68L380.618 1737.86L332.437 1724.5L345.802 1676.32Z" fill="white"/>
<path d="M328.161 1739.92L376.341 1753.28L362.977 1801.46L314.796 1788.1L328.161 1739.92Z" fill="white"/>
<path d="M479.965 1439.56L528.146 1452.93L514.781 1501.11L466.6 1487.75L479.965 1439.56Z" fill="white"/>
<path d="M462.324 1503.16L510.504 1516.53L497.14 1564.71L448.959 1551.34L462.324 1503.16Z" fill="white"/>
<path d="M444.683 1566.76L492.863 1580.13L479.499 1628.31L431.318 1614.94L444.683 1566.76Z" fill="white"/>
<path d="M427.041 1630.36L475.222 1643.72L461.858 1691.91L413.677 1678.54L427.041 1630.36Z" fill="white"/>
<path d="M409.4 1693.96L457.581 1707.32L444.217 1755.5L396.036 1742.14L409.4 1693.96Z" fill="white"/>
<path d="M391.759 1757.56L439.94 1770.92L426.576 1819.1L378.395 1805.74L391.759 1757.56Z" fill="white"/>
<path d="M543.563 1457.21L591.744 1470.57L578.38 1518.75L530.199 1505.39L543.563 1457.21Z" fill="white"/>
<path d="M525.922 1520.8L574.103 1534.17L560.739 1582.35L512.558 1568.99L525.922 1520.8Z" fill="white"/>
<path d="M508.281 1584.4L556.462 1597.77L543.098 1645.95L494.917 1632.58L508.281 1584.4Z" fill="white"/>
<path d="M490.64 1648L538.821 1661.37L525.456 1709.55L477.276 1696.18L490.64 1648Z" fill="white"/>
<path d="M472.999 1711.6L521.18 1724.96L507.815 1773.15L459.634 1759.78L472.999 1711.6Z" fill="white"/>
<path d="M455.358 1775.2L503.539 1788.56L490.174 1836.74L441.993 1823.38L455.358 1775.2Z" fill="white"/>
<path d="M607.162 1474.85L655.343 1488.21L641.978 1536.39L593.798 1523.03L607.162 1474.85Z" fill="white"/>
<path d="M589.521 1538.45L637.702 1551.81L624.337 1599.99L576.157 1586.63L589.521 1538.45Z" fill="white"/>
<path d="M571.88 1602.04L620.061 1615.41L606.696 1663.59L558.515 1650.22L571.88 1602.04Z" fill="white"/>
<path d="M554.239 1665.64L602.42 1679.01L589.055 1727.19L540.874 1713.82L554.239 1665.64Z" fill="white"/>
<path d="M536.598 1729.24L584.778 1742.61L571.414 1790.79L523.233 1777.42L536.598 1729.24Z" fill="white"/>
<path d="M518.957 1792.84L567.137 1806.2L553.773 1854.39L505.592 1841.02L518.957 1792.84Z" fill="white"/>
</svg>
