<svg width="887" height="1479" viewBox="0 0 887 1479" fill="none" xmlns="http://www.w3.org/2000/svg">
<path d="M443.5 0L553.794 13.9334L657.158 54.858L747.097 120.202L817.959 205.861L865.294 306.451L886.125 415.652L879.144 526.604L844.791 632.333L785.223 726.198L704.183 802.299L606.763 855.856L499.085 883.503H387.915L280.237 855.856L182.817 802.299L101.777 726.198L42.2092 632.333L7.85559 526.604L0.875153 415.652L21.7064 306.451L69.0406 205.861L139.903 120.202L229.842 54.858L333.206 13.9334L443.5 0Z" fill="#D9D9D9"/>
<path d="M124 967H711V1031H124V967Z" fill="#EAEAEA"/>
<path d="M131 973H182V1024H131V973Z" fill="white"/>
<path d="M189 973H240V1024H189V973Z" fill="white"/>
<path d="M247 973H298V1024H247V973Z" fill="white"/>
<path d="M305 973H356V1024H305V973Z" fill="white"/>
<path d="M363 973H414V1024H363V973Z" fill="white"/>
<path d="M421 973H472V1024H421V973Z" fill="white"/>
<path d="M479 973H530V1024H479V973Z" fill="white"/>
<path d="M537 973H588V1024H537V973Z" fill="white"/>
<path d="M595 973H646V1024H595V973Z" fill="white"/>
<path d="M653 973H704V1024H653V973Z" fill="white"/>
<path d="M124 1031H711V1095H124V1031Z" fill="#EAEAEA"/>
<path d="M131 1037H182V1088H131V1037Z" fill="white"/>
<path d="M189 1037H240V1088H189V1037Z" fill="white"/>
<path d="M247 1037H298V1088H247V1037Z" fill="white"/>
<path d="M305 1037H356V1088H305V1037Z" fill="white"/>
<path d="M363 1037H414V1088H363V1037Z" fill="white"/>
<path d="M421 1037H472V1088H421V1037Z" fill="white"/>
<path d="M479 1037H530V1088H479V1037Z" fill="white"/>
<path d="M537 1037H588V1088H537V1037Z" fill="white"/>
<path d="M595 1037H646V1088H595V1037Z" fill="white"/>
<path d="M653 1037H704V1088H653V1037Z" fill="white"/>
<path d="M124 1095H711V1159H124V1095Z" fill="#EAEAEA"/>
<path d="M131 1101H182V1152H131V1101Z" fill="white"/>
<path d="M189 1101H240V1152H189V1101Z" fill="white"/>
<path d="M247 1101H298V1152H247V1101Z" fill="white"/>
<path d="M305 1101H356V1152H305V1101Z" fill="white"/>
<path d="M363 1101H414V1152H363V1101Z" fill="white"/>
<path d="M421 1101H472V1152H421V1101Z" fill="white"/>
<path d="M479 1101H530V1152H479V1101Z" fill="white"/>
<path d="M537 1101H588V1152H537V1101Z" fill="white"/>
<path d="M595 1101H646V1152H595V1101Z" fill="white"/>
<path d="M653 1101H704V1152H653V1101Z" fill="white"/>
<path d="M124 1159H711V1223H124V1159Z" fill="#EAEAEA"/>
<path d="M131 1165H182V1216H131V1165Z" fill="white"/>
<path d="M189 1165H240V1216H189V1165Z" fill="white"/>
<path d="M247 1165H298V1216H247V1165Z" fill="white"/>
<path d="M305 1165H356V1216H305V1165Z" fill="white"/>
<path d="M363 1165H414V1216H363V1165Z" fill="white"/>
<path d="M421 1165H472V1216H421V1165Z" fill="white"/>
<path d="M479 1165H530V1216H479V1165Z" fill="white"/>
<path d="M537 1165H588V1216H537V1165Z" fill="white"/>
<path d="M595 1165H646V1216H595V1165Z" fill="white"/>
<path d="M653 1165H704V1216H653V1165Z" fill="white"/>
<path d="M124 1223H711V1287H124V1223Z" fill="#EAEAEA"/>
<path d="M131 1229H182V1280H131V1229Z" fill="white"/>
<path d="M189 1229H240V1280H189V1229Z" fill="white"/>
<path d="M247 1229H298V1280H247V1229Z" fill="white"/>
<path d="M305 1229H356V1280H305V1229Z" fill="white"/>
<path d="M363 1229H414V1280H363V1229Z" fill="white"/>
<path d="M421 1229H472V1280H421V1229Z" fill="white"/>
<path d="M479 1229H530V1280H479V1229Z" fill="white"/>
<path d="M537 1229H588V1280H537V1229Z" fill="white"/>
<path d="M595 1229H646V1280H595V1229Z" fill="white"/>
<path d="M653 1229H704V1280H653V1229Z" fill="white"/>
<path d="M124 1287H711V1351H124V1287Z" fill="#EAEAEA"/>
<path d="M131 1293H182V1344H131V1293Z" fill="white"/>
<path d="M189 1293H240V1344H189V1293Z" fill="white"/>
<path d="M247 1293H298V1344H247V1293Z" fill="white"/>
<path d="M305 1293H356V1344H305V1293Z" fill="white"/>
<path d="M363 1293H414V1344H363V1293Z" fill="white"/>
<path d="M421 1293H472V1344H421V1293Z" fill="white"/>
<path d="M479 1293H530V1344H479V1293Z" fill="white"/>
<path d="M537 1293H588V1344H537V1293Z" fill="white"/>
<path d="M595 1293H646V1344H595V1293Z" fill="white"/>
<path d="M653 1293H704V1344H653V1293Z" fill="white"/>
<path d="M124 1351H711V1415H124V1351Z" fill="#EAEAEA"/>
<path d="M131 1357H182V1408H131V1357Z" fill="white"/>
<path d="M189 1357H240V1408H189V1357Z" fill="white"/>
<path d="M247 1357H298V1408H247V1357Z" fill="white"/>
<path d="M305 1357H356V1408H305V1357Z" fill="white"/>
<path d="M363 1357H414V1408H363V1357Z" fill="white"/>
<path d="M421 1357H472V1408H421V1357Z" fill="white"/>
<path d="M479 1357H530V1408H479V1357Z" fill="white"/>
<path d="M537 1357H588V1408H537V1357Z" fill="white"/>
<path d="M595 1357H646V1408H595V1357Z" fill="white"/>
<path d="M653 1357H704V1408H653V1357Z" fill="white"/>
<path d="M124 1415H711V1479H124V1415Z" fill="#EAEAEA"/>
<path d="M131 1421H182V1472H131V1421Z" fill="white"/>
<path d="M189 1421H240V1472H189V1421Z" fill="white"/>
<path d="M247 1421H298V1472H247V1421Z" fill="white"/>
<path d="M305 1421H356V1472H305V1421Z" fill="white"/>
<path d="M363 1421H414V1472H363V1421Z" fill="white"/>
<path d="M421 1421H472V1472H421V1421Z" fill="white"/>
<path d="M479 1421H530V1472H479V1421Z" fill="white"/>
<path d="M537 1421H588V1472H537V1421Z" fill="white"/>
<path d="M595 1421H646V1472H595V1421Z" fill="white"/>
<path d="M653 1421H704V1472H653V1421Z" fill="white"/>
</svg>
