<svg width="638" height="77" viewBox="0 0 638 77" fill="none" xmlns="http://www.w3.org/2000/svg">
<path d="M253 46H295V77H253V46Z" fill="#D9D9D9"/>
<path d="M211 46H253V77H211V46Z" fill="#D9D9D9"/>
<path d="M22 31H211V62H0.5L22 31Z" fill="#D9D9D9"/>
<path d="M22 31H211V62H0.5L22 31Z" fill="#D9D9D9"/>
<path d="M42.2019 0H211V31H23L42.2019 0Z" fill="#D9D9D9"/>
<path d="M42.2019 0H211V31H23L42.2019 0Z" fill="#D9D9D9"/>
<path d="M295 46H337V77H295V46Z" fill="#D9D9D9"/>
<path d="M379 46H421V77H379V46Z" fill="#D9D9D9"/>
<path d="M463 46H638V77H463V46Z" fill="#D9D9D9"/>
<path d="M421 46H463V77H421V46Z" fill="#D9D9D9"/>
<path d="M337 46H379V77H337V46Z" fill="#D9D9D9"/>
</svg>
