<svg width="638" height="147" viewBox="0 0 638 147" fill="none" xmlns="http://www.w3.org/2000/svg">
<path d="M253 116H295V147H253V116Z" fill="#D9D9D9"/>
<path d="M211 116H253V147H211V116Z" fill="#D9D9D9"/>
<path d="M22 101H211V132H0.5L22 101Z" fill="#D9D9D9"/>
<path d="M22 101H211V132H0.5L22 101Z" fill="#D9D9D9"/>
<path d="M42.2019 70H211V101H23L42.2019 70Z" fill="#D9D9D9"/>
<path d="M42.2019 70H211V101H23L42.2019 70Z" fill="#D9D9D9"/>
<path d="M295 116H337V147H295V116Z" fill="#D9D9D9"/>
<path d="M379 116H421V147H379V116Z" fill="#D9D9D9"/>
<path d="M463 116H638V147H463V116Z" fill="#D9D9D9"/>
<path d="M421 116H463V147H421V116Z" fill="#D9D9D9"/>
<path d="M337 116H379V147H337V116Z" fill="#D9D9D9"/>
<path d="M253 116H295V147H253V116Z" fill="#D9D9D9"/>
<path d="M211 116H253V147H211V116Z" fill="#D9D9D9"/>
<path d="M211 13H253V44H211V13Z" fill="#D9D9D9"/>
<path d="M169 13H211V44H169V13Z" fill="#D9D9D9"/>
<path d="M42 13V30H127.677V44H169V13H42Z" fill="#D9D9D9"/>
<path d="M253 13H295V44H253V13Z" fill="#D9D9D9"/>
<path d="M295 13H337V44H295V13Z" fill="#D9D9D9"/>
<path d="M337 13H379V44H337V13Z" fill="#D9D9D9"/>
<path d="M379 13H421V44H379V13Z" fill="#D9D9D9"/>
<path d="M421 13H463V44H421V13Z" fill="#D9D9D9"/>
<path d="M463 13H505V44H463V13Z" fill="#D9D9D9"/>
<path d="M505 13H547V44H505V13Z" fill="#D9D9D9"/>
<path d="M545 88H638V116H545V88Z" fill="#D9D9D9"/>
<path d="M547 0H625V15H547V0Z" fill="#D9D9D9"/>
<path d="M547 15H625V30H547V15Z" fill="#D9D9D9"/>
<path d="M547 30H638V54H547V30Z" fill="#D9D9D9"/>
<path d="M547 67H638V88H547V67Z" fill="#D9D9D9"/>
<path d="M545 88H638V116H545V88Z" fill="#D9D9D9"/>
<path d="M22 101H211V132H0.5L22 101Z" fill="#D9D9D9"/>
<path d="M22 101H211V132H0.5L22 101Z" fill="#D9D9D9"/>
<path d="M42.2019 70H211V101H23L42.2019 70Z" fill="#D9D9D9"/>
<path d="M42.2019 70H211V101H23L42.2019 70Z" fill="#D9D9D9"/>
<path d="M295 116H337V147H295V116Z" fill="#D9D9D9"/>
<path d="M379 116H421V147H379V116Z" fill="#D9D9D9"/>
<path d="M463 116H638V147H463V116Z" fill="#D9D9D9"/>
<path d="M421 116H463V147H421V116Z" fill="#D9D9D9"/>
<path d="M337 116H379V147H337V116Z" fill="#D9D9D9"/>
<path d="M42 30H128V44H42V30Z" fill="#D9D9D9"/>
<path d="M42 44H209V58H42V44Z" fill="#D9D9D9"/>
</svg>
