<svg width="1568" height="1277" viewBox="0 0 1568 1277" fill="none" xmlns="http://www.w3.org/2000/svg">
<rect x="842.5" y="709.5" width="725" height="63" fill="white" stroke="black"/>
<rect x="858.5" y="723.5" width="34" height="34" fill="white" stroke="black"/>
<rect x="1210.5" y="723.5" width="34" height="34" fill="white" stroke="black"/>
<rect x="1034.5" y="723.5" width="34" height="34" fill="white" stroke="black"/>
<rect x="1386.5" y="723.5" width="34" height="34" fill="white" stroke="black"/>
<rect x="946.5" y="723.5" width="34" height="34" fill="white" stroke="black"/>
<rect x="1298.5" y="723.5" width="34" height="34" fill="white" stroke="black"/>
<rect x="1122.5" y="723.5" width="34" height="34" fill="white" stroke="black"/>
<rect x="1474.5" y="723.5" width="34" height="34" fill="white" stroke="black"/>
<rect x="902.5" y="723.5" width="34" height="34" fill="white" stroke="black"/>
<rect x="1254.5" y="723.5" width="34" height="34" fill="white" stroke="black"/>
<rect x="1078.5" y="723.5" width="34" height="34" fill="white" stroke="black"/>
<rect x="1430.5" y="723.5" width="34" height="34" fill="white" stroke="black"/>
<rect x="990.5" y="723.5" width="34" height="34" fill="white" stroke="black"/>
<rect x="1342.5" y="723.5" width="34" height="34" fill="white" stroke="black"/>
<rect x="1166.5" y="723.5" width="34" height="34" fill="white" stroke="black"/>
<rect x="1518.5" y="723.5" width="34" height="34" fill="white" stroke="black"/>
<rect x="842.5" y="772.5" width="725" height="63" fill="white" stroke="black"/>
<rect x="858.5" y="786.5" width="34" height="34" fill="white" stroke="black"/>
<rect x="1210.5" y="786.5" width="34" height="34" fill="white" stroke="black"/>
<rect x="1034.5" y="786.5" width="34" height="34" fill="white" stroke="black"/>
<rect x="1386.5" y="786.5" width="34" height="34" fill="white" stroke="black"/>
<rect x="946.5" y="786.5" width="34" height="34" fill="white" stroke="black"/>
<rect x="1298.5" y="786.5" width="34" height="34" fill="white" stroke="black"/>
<rect x="1122.5" y="786.5" width="34" height="34" fill="white" stroke="black"/>
<rect x="1474.5" y="786.5" width="34" height="34" fill="white" stroke="black"/>
<rect x="902.5" y="786.5" width="34" height="34" fill="white" stroke="black"/>
<rect x="1254.5" y="786.5" width="34" height="34" fill="white" stroke="black"/>
<rect x="1078.5" y="786.5" width="34" height="34" fill="white" stroke="black"/>
<rect x="1430.5" y="786.5" width="34" height="34" fill="white" stroke="black"/>
<rect x="990.5" y="786.5" width="34" height="34" fill="white" stroke="black"/>
<rect x="1342.5" y="786.5" width="34" height="34" fill="white" stroke="black"/>
<rect x="1166.5" y="786.5" width="34" height="34" fill="white" stroke="black"/>
<rect x="1518.5" y="786.5" width="34" height="34" fill="white" stroke="black"/>
<rect x="842.5" y="835.5" width="725" height="63" fill="white" stroke="black"/>
<rect x="858.5" y="849.5" width="34" height="34" fill="white" stroke="black"/>
<rect x="1210.5" y="849.5" width="34" height="34" fill="white" stroke="black"/>
<rect x="1034.5" y="849.5" width="34" height="34" fill="white" stroke="black"/>
<rect x="1386.5" y="849.5" width="34" height="34" fill="white" stroke="black"/>
<rect x="946.5" y="849.5" width="34" height="34" fill="white" stroke="black"/>
<rect x="1298.5" y="849.5" width="34" height="34" fill="white" stroke="black"/>
<rect x="1122.5" y="849.5" width="34" height="34" fill="white" stroke="black"/>
<rect x="1474.5" y="849.5" width="34" height="34" fill="white" stroke="black"/>
<rect x="902.5" y="849.5" width="34" height="34" fill="white" stroke="black"/>
<rect x="1254.5" y="849.5" width="34" height="34" fill="white" stroke="black"/>
<rect x="1078.5" y="849.5" width="34" height="34" fill="white" stroke="black"/>
<rect x="1430.5" y="849.5" width="34" height="34" fill="white" stroke="black"/>
<rect x="990.5" y="849.5" width="34" height="34" fill="white" stroke="black"/>
<rect x="1342.5" y="849.5" width="34" height="34" fill="white" stroke="black"/>
<rect x="1166.5" y="849.5" width="34" height="34" fill="white" stroke="black"/>
<rect x="1518.5" y="849.5" width="34" height="34" fill="white" stroke="black"/>
<rect x="842.5" y="898.5" width="725" height="63" fill="white" stroke="black"/>
<rect x="858.5" y="912.5" width="34" height="34" fill="white" stroke="black"/>
<rect x="1210.5" y="912.5" width="34" height="34" fill="white" stroke="black"/>
<rect x="1034.5" y="912.5" width="34" height="34" fill="white" stroke="black"/>
<rect x="1386.5" y="912.5" width="34" height="34" fill="white" stroke="black"/>
<rect x="946.5" y="912.5" width="34" height="34" fill="white" stroke="black"/>
<rect x="1298.5" y="912.5" width="34" height="34" fill="white" stroke="black"/>
<rect x="1122.5" y="912.5" width="34" height="34" fill="white" stroke="black"/>
<rect x="1474.5" y="912.5" width="34" height="34" fill="white" stroke="black"/>
<rect x="902.5" y="912.5" width="34" height="34" fill="white" stroke="black"/>
<rect x="1254.5" y="912.5" width="34" height="34" fill="white" stroke="black"/>
<rect x="1078.5" y="912.5" width="34" height="34" fill="white" stroke="black"/>
<rect x="1430.5" y="912.5" width="34" height="34" fill="white" stroke="black"/>
<rect x="990.5" y="912.5" width="34" height="34" fill="white" stroke="black"/>
<rect x="1342.5" y="912.5" width="34" height="34" fill="white" stroke="black"/>
<rect x="1166.5" y="912.5" width="34" height="34" fill="white" stroke="black"/>
<rect x="1518.5" y="912.5" width="34" height="34" fill="white" stroke="black"/>
<rect x="842.5" y="961.5" width="725" height="63" fill="white" stroke="black"/>
<rect x="858.5" y="975.5" width="34" height="34" fill="white" stroke="black"/>
<rect x="1210.5" y="975.5" width="34" height="34" fill="white" stroke="black"/>
<rect x="1034.5" y="975.5" width="34" height="34" fill="white" stroke="black"/>
<rect x="1386.5" y="975.5" width="34" height="34" fill="white" stroke="black"/>
<rect x="946.5" y="975.5" width="34" height="34" fill="white" stroke="black"/>
<rect x="1298.5" y="975.5" width="34" height="34" fill="white" stroke="black"/>
<rect x="1122.5" y="975.5" width="34" height="34" fill="white" stroke="black"/>
<rect x="1474.5" y="975.5" width="34" height="34" fill="white" stroke="black"/>
<rect x="902.5" y="975.5" width="34" height="34" fill="white" stroke="black"/>
<rect x="1254.5" y="975.5" width="34" height="34" fill="white" stroke="black"/>
<rect x="1078.5" y="975.5" width="34" height="34" fill="white" stroke="black"/>
<rect x="1430.5" y="975.5" width="34" height="34" fill="white" stroke="black"/>
<rect x="990.5" y="975.5" width="34" height="34" fill="white" stroke="black"/>
<rect x="1342.5" y="975.5" width="34" height="34" fill="white" stroke="black"/>
<rect x="1166.5" y="975.5" width="34" height="34" fill="white" stroke="black"/>
<rect x="1518.5" y="975.5" width="34" height="34" fill="white" stroke="black"/>
<rect x="842.5" y="1024.5" width="725" height="63" fill="white" stroke="black"/>
<rect x="858.5" y="1038.5" width="34" height="34" fill="white" stroke="black"/>
<rect x="1210.5" y="1038.5" width="34" height="34" fill="white" stroke="black"/>
<rect x="1034.5" y="1038.5" width="34" height="34" fill="white" stroke="black"/>
<rect x="1386.5" y="1038.5" width="34" height="34" fill="white" stroke="black"/>
<rect x="946.5" y="1038.5" width="34" height="34" fill="white" stroke="black"/>
<rect x="1298.5" y="1038.5" width="34" height="34" fill="white" stroke="black"/>
<rect x="1122.5" y="1038.5" width="34" height="34" fill="white" stroke="black"/>
<rect x="1474.5" y="1038.5" width="34" height="34" fill="white" stroke="black"/>
<rect x="902.5" y="1038.5" width="34" height="34" fill="white" stroke="black"/>
<rect x="1254.5" y="1038.5" width="34" height="34" fill="white" stroke="black"/>
<rect x="1078.5" y="1038.5" width="34" height="34" fill="white" stroke="black"/>
<rect x="1430.5" y="1038.5" width="34" height="34" fill="white" stroke="black"/>
<rect x="990.5" y="1038.5" width="34" height="34" fill="white" stroke="black"/>
<rect x="1342.5" y="1038.5" width="34" height="34" fill="white" stroke="black"/>
<rect x="1166.5" y="1038.5" width="34" height="34" fill="white" stroke="black"/>
<rect x="1518.5" y="1038.5" width="34" height="34" fill="white" stroke="black"/>
<rect x="842.5" y="1087.5" width="725" height="63" fill="white" stroke="black"/>
<rect x="858.5" y="1101.5" width="34" height="34" fill="white" stroke="black"/>
<rect x="1210.5" y="1101.5" width="34" height="34" fill="white" stroke="black"/>
<rect x="1034.5" y="1101.5" width="34" height="34" fill="white" stroke="black"/>
<rect x="1386.5" y="1101.5" width="34" height="34" fill="white" stroke="black"/>
<rect x="946.5" y="1101.5" width="34" height="34" fill="white" stroke="black"/>
<rect x="1298.5" y="1101.5" width="34" height="34" fill="white" stroke="black"/>
<rect x="1122.5" y="1101.5" width="34" height="34" fill="white" stroke="black"/>
<rect x="1474.5" y="1101.5" width="34" height="34" fill="white" stroke="black"/>
<rect x="902.5" y="1101.5" width="34" height="34" fill="white" stroke="black"/>
<rect x="1254.5" y="1101.5" width="34" height="34" fill="white" stroke="black"/>
<rect x="1078.5" y="1101.5" width="34" height="34" fill="white" stroke="black"/>
<rect x="1430.5" y="1101.5" width="34" height="34" fill="white" stroke="black"/>
<rect x="990.5" y="1101.5" width="34" height="34" fill="white" stroke="black"/>
<rect x="1342.5" y="1101.5" width="34" height="34" fill="white" stroke="black"/>
<rect x="1166.5" y="1101.5" width="34" height="34" fill="white" stroke="black"/>
<rect x="1518.5" y="1101.5" width="34" height="34" fill="white" stroke="black"/>
<rect x="842.5" y="1150.5" width="725" height="63" fill="white" stroke="black"/>
<rect x="858.5" y="1164.5" width="34" height="34" fill="white" stroke="black"/>
<rect x="1210.5" y="1164.5" width="34" height="34" fill="white" stroke="black"/>
<rect x="1034.5" y="1164.5" width="34" height="34" fill="white" stroke="black"/>
<rect x="1386.5" y="1164.5" width="34" height="34" fill="white" stroke="black"/>
<rect x="946.5" y="1164.5" width="34" height="34" fill="white" stroke="black"/>
<rect x="1298.5" y="1164.5" width="34" height="34" fill="white" stroke="black"/>
<rect x="1122.5" y="1164.5" width="34" height="34" fill="white" stroke="black"/>
<rect x="1474.5" y="1164.5" width="34" height="34" fill="white" stroke="black"/>
<rect x="902.5" y="1164.5" width="34" height="34" fill="white" stroke="black"/>
<rect x="1254.5" y="1164.5" width="34" height="34" fill="white" stroke="black"/>
<rect x="1078.5" y="1164.5" width="34" height="34" fill="white" stroke="black"/>
<rect x="1430.5" y="1164.5" width="34" height="34" fill="white" stroke="black"/>
<rect x="990.5" y="1164.5" width="34" height="34" fill="white" stroke="black"/>
<rect x="1342.5" y="1164.5" width="34" height="34" fill="white" stroke="black"/>
<rect x="1166.5" y="1164.5" width="34" height="34" fill="white" stroke="black"/>
<rect x="1518.5" y="1164.5" width="34" height="34" fill="white" stroke="black"/>
<rect x="842.5" y="1213.5" width="725" height="63" fill="white" stroke="black"/>
<rect x="858.5" y="1227.5" width="34" height="34" fill="white" stroke="black"/>
<rect x="1210.5" y="1227.5" width="34" height="34" fill="white" stroke="black"/>
<rect x="1034.5" y="1227.5" width="34" height="34" fill="white" stroke="black"/>
<rect x="1386.5" y="1227.5" width="34" height="34" fill="white" stroke="black"/>
<rect x="946.5" y="1227.5" width="34" height="34" fill="white" stroke="black"/>
<rect x="1298.5" y="1227.5" width="34" height="34" fill="white" stroke="black"/>
<rect x="1122.5" y="1227.5" width="34" height="34" fill="white" stroke="black"/>
<rect x="1474.5" y="1227.5" width="34" height="34" fill="white" stroke="black"/>
<rect x="902.5" y="1227.5" width="34" height="34" fill="white" stroke="black"/>
<rect x="1254.5" y="1227.5" width="34" height="34" fill="white" stroke="black"/>
<rect x="1078.5" y="1227.5" width="34" height="34" fill="white" stroke="black"/>
<rect x="1430.5" y="1227.5" width="34" height="34" fill="white" stroke="black"/>
<rect x="990.5" y="1227.5" width="34" height="34" fill="white" stroke="black"/>
<rect x="1342.5" y="1227.5" width="34" height="34" fill="white" stroke="black"/>
<rect x="1166.5" y="1227.5" width="34" height="34" fill="white" stroke="black"/>
<rect x="1518.5" y="1227.5" width="34" height="34" fill="white" stroke="black"/>
<rect x="517.068" y="33.6618" width="725" height="63" transform="rotate(65.6118 517.068 33.6618)" fill="white" stroke="black"/>
<rect x="510.924" y="54.015" width="34" height="34" transform="rotate(65.6118 510.924 54.015)" fill="white" stroke="black"/>
<rect x="656.27" y="374.606" width="34" height="34" transform="rotate(65.6118 656.27 374.606)" fill="white" stroke="black"/>
<rect x="583.597" y="214.31" width="34" height="34" transform="rotate(65.6118 583.597 214.31)" fill="white" stroke="black"/>
<rect x="728.944" y="534.901" width="34" height="34" transform="rotate(65.6118 728.944 534.901)" fill="white" stroke="black"/>
<rect x="547.26" y="134.163" width="34" height="34" transform="rotate(65.6118 547.26 134.163)" fill="white" stroke="black"/>
<rect x="692.607" y="454.753" width="34" height="34" transform="rotate(65.6118 692.607 454.753)" fill="white" stroke="black"/>
<rect x="619.934" y="294.458" width="34" height="34" transform="rotate(65.6118 619.934 294.458)" fill="white" stroke="black"/>
<rect x="765.28" y="615.049" width="34" height="34" transform="rotate(65.6118 765.28 615.049)" fill="white" stroke="black"/>
<rect x="529.092" y="94.0888" width="34" height="34" transform="rotate(65.6118 529.092 94.0888)" fill="white" stroke="black"/>
<rect x="674.439" y="414.679" width="34" height="34" transform="rotate(65.6118 674.439 414.679)" fill="white" stroke="black"/>
<rect x="601.765" y="254.384" width="34" height="34" transform="rotate(65.6118 601.765 254.384)" fill="white" stroke="black"/>
<rect x="747.112" y="574.975" width="34" height="34" transform="rotate(65.6118 747.112 574.975)" fill="white" stroke="black"/>
<rect x="565.429" y="174.236" width="34" height="34" transform="rotate(65.6118 565.429 174.236)" fill="white" stroke="black"/>
<rect x="710.775" y="494.827" width="34" height="34" transform="rotate(65.6118 710.775 494.827)" fill="white" stroke="black"/>
<rect x="638.102" y="334.532" width="34" height="34" transform="rotate(65.6118 638.102 334.532)" fill="white" stroke="black"/>
<rect x="783.449" y="655.122" width="34" height="34" transform="rotate(65.6118 783.449 655.122)" fill="white" stroke="black"/>
<rect x="459.689" y="59.6756" width="725" height="63" transform="rotate(65.6118 459.689 59.6756)" fill="white" stroke="black"/>
<rect x="453.545" y="80.0288" width="34" height="34" transform="rotate(65.6118 453.545 80.0288)" fill="white" stroke="black"/>
<rect x="598.892" y="400.619" width="34" height="34" transform="rotate(65.6118 598.892 400.619)" fill="white" stroke="black"/>
<rect x="526.219" y="240.324" width="34" height="34" transform="rotate(65.6118 526.219 240.324)" fill="white" stroke="black"/>
<rect x="671.565" y="560.915" width="34" height="34" transform="rotate(65.6118 671.565 560.915)" fill="white" stroke="black"/>
<rect x="489.882" y="160.176" width="34" height="34" transform="rotate(65.6118 489.882 160.176)" fill="white" stroke="black"/>
<rect x="635.229" y="480.767" width="34" height="34" transform="rotate(65.6118 635.229 480.767)" fill="white" stroke="black"/>
<rect x="562.555" y="320.472" width="34" height="34" transform="rotate(65.6118 562.555 320.472)" fill="white" stroke="black"/>
<rect x="707.902" y="641.062" width="34" height="34" transform="rotate(65.6118 707.902 641.062)" fill="white" stroke="black"/>
<rect x="471.714" y="120.103" width="34" height="34" transform="rotate(65.6118 471.714 120.103)" fill="white" stroke="black"/>
<rect x="617.06" y="440.693" width="34" height="34" transform="rotate(65.6118 617.06 440.693)" fill="white" stroke="black"/>
<rect x="544.387" y="280.398" width="34" height="34" transform="rotate(65.6118 544.387 280.398)" fill="white" stroke="black"/>
<rect x="689.734" y="600.989" width="34" height="34" transform="rotate(65.6118 689.734 600.989)" fill="white" stroke="black"/>
<rect x="508.05" y="200.25" width="34" height="34" transform="rotate(65.6118 508.05 200.25)" fill="white" stroke="black"/>
<rect x="653.397" y="520.841" width="34" height="34" transform="rotate(65.6118 653.397 520.841)" fill="white" stroke="black"/>
<rect x="580.724" y="360.546" width="34" height="34" transform="rotate(65.6118 580.724 360.546)" fill="white" stroke="black"/>
<rect x="726.07" y="681.136" width="34" height="34" transform="rotate(65.6118 726.07 681.136)" fill="white" stroke="black"/>
<rect x="402.311" y="85.6893" width="725" height="63" transform="rotate(65.6118 402.311 85.6893)" fill="white" stroke="black"/>
<rect x="396.167" y="106.042" width="34" height="34" transform="rotate(65.6118 396.167 106.042)" fill="white" stroke="black"/>
<rect x="541.513" y="426.633" width="34" height="34" transform="rotate(65.6118 541.513 426.633)" fill="white" stroke="black"/>
<rect x="468.84" y="266.338" width="34" height="34" transform="rotate(65.6118 468.84 266.338)" fill="white" stroke="black"/>
<rect x="614.187" y="586.928" width="34" height="34" transform="rotate(65.6118 614.187 586.928)" fill="white" stroke="black"/>
<rect x="432.503" y="186.19" width="34" height="34" transform="rotate(65.6118 432.503 186.19)" fill="white" stroke="black"/>
<rect x="577.85" y="506.781" width="34" height="34" transform="rotate(65.6118 577.85 506.781)" fill="white" stroke="black"/>
<rect x="505.177" y="346.485" width="34" height="34" transform="rotate(65.6118 505.177 346.485)" fill="white" stroke="black"/>
<rect x="650.523" y="667.076" width="34" height="34" transform="rotate(65.6118 650.523 667.076)" fill="white" stroke="black"/>
<rect x="414.335" y="146.116" width="34" height="34" transform="rotate(65.6118 414.335 146.116)" fill="white" stroke="black"/>
<rect x="559.682" y="466.707" width="34" height="34" transform="rotate(65.6118 559.682 466.707)" fill="white" stroke="black"/>
<rect x="487.008" y="306.412" width="34" height="34" transform="rotate(65.6118 487.008 306.412)" fill="white" stroke="black"/>
<rect x="632.355" y="627.002" width="34" height="34" transform="rotate(65.6118 632.355 627.002)" fill="white" stroke="black"/>
<rect x="450.672" y="226.264" width="34" height="34" transform="rotate(65.6118 450.672 226.264)" fill="white" stroke="black"/>
<rect x="596.018" y="546.855" width="34" height="34" transform="rotate(65.6118 596.018 546.855)" fill="white" stroke="black"/>
<rect x="523.345" y="386.559" width="34" height="34" transform="rotate(65.6118 523.345 386.559)" fill="white" stroke="black"/>
<rect x="668.692" y="707.15" width="34" height="34" transform="rotate(65.6118 668.692 707.15)" fill="white" stroke="black"/>
<rect x="344.932" y="111.703" width="725" height="63" transform="rotate(65.6118 344.932 111.703)" fill="white" stroke="black"/>
<rect x="338.788" y="132.056" width="34" height="34" transform="rotate(65.6118 338.788 132.056)" fill="white" stroke="black"/>
<rect x="484.135" y="452.647" width="34" height="34" transform="rotate(65.6118 484.135 452.647)" fill="white" stroke="black"/>
<rect x="411.462" y="292.352" width="34" height="34" transform="rotate(65.6118 411.462 292.352)" fill="white" stroke="black"/>
<rect x="556.808" y="612.942" width="34" height="34" transform="rotate(65.6118 556.808 612.942)" fill="white" stroke="black"/>
<rect x="375.125" y="212.204" width="34" height="34" transform="rotate(65.6118 375.125 212.204)" fill="white" stroke="black"/>
<rect x="520.472" y="532.795" width="34" height="34" transform="rotate(65.6118 520.472 532.795)" fill="white" stroke="black"/>
<rect x="447.798" y="372.499" width="34" height="34" transform="rotate(65.6118 447.798 372.499)" fill="white" stroke="black"/>
<rect x="593.145" y="693.09" width="34" height="34" transform="rotate(65.6118 593.145 693.09)" fill="white" stroke="black"/>
<rect x="356.957" y="172.13" width="34" height="34" transform="rotate(65.6118 356.957 172.13)" fill="white" stroke="black"/>
<rect x="502.303" y="492.721" width="34" height="34" transform="rotate(65.6118 502.303 492.721)" fill="white" stroke="black"/>
<rect x="429.63" y="332.425" width="34" height="34" transform="rotate(65.6118 429.63 332.425)" fill="white" stroke="black"/>
<rect x="574.977" y="653.016" width="34" height="34" transform="rotate(65.6118 574.977 653.016)" fill="white" stroke="black"/>
<rect x="393.293" y="252.278" width="34" height="34" transform="rotate(65.6118 393.293 252.278)" fill="white" stroke="black"/>
<rect x="538.64" y="572.868" width="34" height="34" transform="rotate(65.6118 538.64 572.868)" fill="white" stroke="black"/>
<rect x="465.967" y="412.573" width="34" height="34" transform="rotate(65.6118 465.967 412.573)" fill="white" stroke="black"/>
<rect x="611.313" y="733.164" width="34" height="34" transform="rotate(65.6118 611.313 733.164)" fill="white" stroke="black"/>
<rect x="287.554" y="137.717" width="725" height="63" transform="rotate(65.6118 287.554 137.717)" fill="white" stroke="black"/>
<rect x="281.41" y="158.07" width="34" height="34" transform="rotate(65.6118 281.41 158.07)" fill="white" stroke="black"/>
<rect x="426.757" y="478.661" width="34" height="34" transform="rotate(65.6118 426.757 478.661)" fill="white" stroke="black"/>
<rect x="354.083" y="318.365" width="34" height="34" transform="rotate(65.6118 354.083 318.365)" fill="white" stroke="black"/>
<rect x="499.43" y="638.956" width="34" height="34" transform="rotate(65.6118 499.43 638.956)" fill="white" stroke="black"/>
<rect x="317.747" y="238.218" width="34" height="34" transform="rotate(65.6118 317.747 238.218)" fill="white" stroke="black"/>
<rect x="463.093" y="558.808" width="34" height="34" transform="rotate(65.6118 463.093 558.808)" fill="white" stroke="black"/>
<rect x="390.42" y="398.513" width="34" height="34" transform="rotate(65.6118 390.42 398.513)" fill="white" stroke="black"/>
<rect x="535.767" y="719.104" width="34" height="34" transform="rotate(65.6118 535.767 719.104)" fill="white" stroke="black"/>
<rect x="299.578" y="198.144" width="34" height="34" transform="rotate(65.6118 299.578 198.144)" fill="white" stroke="black"/>
<rect x="444.925" y="518.734" width="34" height="34" transform="rotate(65.6118 444.925 518.734)" fill="white" stroke="black"/>
<rect x="372.252" y="358.439" width="34" height="34" transform="rotate(65.6118 372.252 358.439)" fill="white" stroke="black"/>
<rect x="517.598" y="679.03" width="34" height="34" transform="rotate(65.6118 517.598 679.03)" fill="white" stroke="black"/>
<rect x="335.915" y="278.291" width="34" height="34" transform="rotate(65.6118 335.915 278.291)" fill="white" stroke="black"/>
<rect x="481.262" y="598.882" width="34" height="34" transform="rotate(65.6118 481.262 598.882)" fill="white" stroke="black"/>
<rect x="408.588" y="438.587" width="34" height="34" transform="rotate(65.6118 408.588 438.587)" fill="white" stroke="black"/>
<rect x="553.935" y="759.177" width="34" height="34" transform="rotate(65.6118 553.935 759.177)" fill="white" stroke="black"/>
<rect x="230.176" y="163.731" width="725" height="63" transform="rotate(65.6118 230.176 163.731)" fill="white" stroke="black"/>
<rect x="224.031" y="184.084" width="34" height="34" transform="rotate(65.6118 224.031 184.084)" fill="white" stroke="black"/>
<rect x="369.378" y="504.674" width="34" height="34" transform="rotate(65.6118 369.378 504.674)" fill="white" stroke="black"/>
<rect x="296.705" y="344.379" width="34" height="34" transform="rotate(65.6118 296.705 344.379)" fill="white" stroke="black"/>
<rect x="442.051" y="664.97" width="34" height="34" transform="rotate(65.6118 442.051 664.97)" fill="white" stroke="black"/>
<rect x="260.368" y="264.231" width="34" height="34" transform="rotate(65.6118 260.368 264.231)" fill="white" stroke="black"/>
<rect x="405.715" y="584.822" width="34" height="34" transform="rotate(65.6118 405.715 584.822)" fill="white" stroke="black"/>
<rect x="333.041" y="424.527" width="34" height="34" transform="rotate(65.6118 333.041 424.527)" fill="white" stroke="black"/>
<rect x="478.388" y="745.117" width="34" height="34" transform="rotate(65.6118 478.388 745.117)" fill="white" stroke="black"/>
<rect x="242.2" y="224.158" width="34" height="34" transform="rotate(65.6118 242.2 224.158)" fill="white" stroke="black"/>
<rect x="387.546" y="544.748" width="34" height="34" transform="rotate(65.6118 387.546 544.748)" fill="white" stroke="black"/>
<rect x="314.873" y="384.453" width="34" height="34" transform="rotate(65.6118 314.873 384.453)" fill="white" stroke="black"/>
<rect x="460.22" y="705.043" width="34" height="34" transform="rotate(65.6118 460.22 705.043)" fill="white" stroke="black"/>
<rect x="278.536" y="304.305" width="34" height="34" transform="rotate(65.6118 278.536 304.305)" fill="white" stroke="black"/>
<rect x="423.883" y="624.896" width="34" height="34" transform="rotate(65.6118 423.883 624.896)" fill="white" stroke="black"/>
<rect x="351.21" y="464.601" width="34" height="34" transform="rotate(65.6118 351.21 464.601)" fill="white" stroke="black"/>
<rect x="496.556" y="785.191" width="34" height="34" transform="rotate(65.6118 496.556 785.191)" fill="white" stroke="black"/>
<rect x="172.797" y="189.744" width="725" height="63" transform="rotate(65.6118 172.797 189.744)" fill="white" stroke="black"/>
<rect x="166.653" y="210.097" width="34" height="34" transform="rotate(65.6118 166.653 210.097)" fill="white" stroke="black"/>
<rect x="312" y="530.688" width="34" height="34" transform="rotate(65.6118 312 530.688)" fill="white" stroke="black"/>
<rect x="239.326" y="370.393" width="34" height="34" transform="rotate(65.6118 239.326 370.393)" fill="white" stroke="black"/>
<rect x="384.673" y="690.983" width="34" height="34" transform="rotate(65.6118 384.673 690.983)" fill="white" stroke="black"/>
<rect x="202.99" y="290.245" width="34" height="34" transform="rotate(65.6118 202.99 290.245)" fill="white" stroke="black"/>
<rect x="348.336" y="610.836" width="34" height="34" transform="rotate(65.6118 348.336 610.836)" fill="white" stroke="black"/>
<rect x="275.663" y="450.54" width="34" height="34" transform="rotate(65.6118 275.663 450.54)" fill="white" stroke="black"/>
<rect x="421.01" y="771.131" width="34" height="34" transform="rotate(65.6118 421.01 771.131)" fill="white" stroke="black"/>
<rect x="184.821" y="250.171" width="34" height="34" transform="rotate(65.6118 184.821 250.171)" fill="white" stroke="black"/>
<rect x="330.168" y="570.762" width="34" height="34" transform="rotate(65.6118 330.168 570.762)" fill="white" stroke="black"/>
<rect x="257.495" y="410.467" width="34" height="34" transform="rotate(65.6118 257.495 410.467)" fill="white" stroke="black"/>
<rect x="402.841" y="731.057" width="34" height="34" transform="rotate(65.6118 402.841 731.057)" fill="white" stroke="black"/>
<rect x="221.158" y="330.319" width="34" height="34" transform="rotate(65.6118 221.158 330.319)" fill="white" stroke="black"/>
<rect x="366.505" y="650.91" width="34" height="34" transform="rotate(65.6118 366.505 650.91)" fill="white" stroke="black"/>
<rect x="293.831" y="490.614" width="34" height="34" transform="rotate(65.6118 293.831 490.614)" fill="white" stroke="black"/>
<rect x="439.178" y="811.205" width="34" height="34" transform="rotate(65.6118 439.178 811.205)" fill="white" stroke="black"/>
<rect x="115.419" y="215.758" width="725" height="63" transform="rotate(65.6118 115.419 215.758)" fill="white" stroke="black"/>
<rect x="109.275" y="236.111" width="34" height="34" transform="rotate(65.6118 109.275 236.111)" fill="white" stroke="black"/>
<rect x="254.621" y="556.702" width="34" height="34" transform="rotate(65.6118 254.621 556.702)" fill="white" stroke="black"/>
<rect x="181.948" y="396.406" width="34" height="34" transform="rotate(65.6118 181.948 396.406)" fill="white" stroke="black"/>
<rect x="327.294" y="716.997" width="34" height="34" transform="rotate(65.6118 327.294 716.997)" fill="white" stroke="black"/>
<rect x="145.611" y="316.259" width="34" height="34" transform="rotate(65.6118 145.611 316.259)" fill="white" stroke="black"/>
<rect x="290.958" y="636.849" width="34" height="34" transform="rotate(65.6118 290.958 636.849)" fill="white" stroke="black"/>
<rect x="218.285" y="476.554" width="34" height="34" transform="rotate(65.6118 218.285 476.554)" fill="white" stroke="black"/>
<rect x="363.631" y="797.145" width="34" height="34" transform="rotate(65.6118 363.631 797.145)" fill="white" stroke="black"/>
<rect x="127.443" y="276.185" width="34" height="34" transform="rotate(65.6118 127.443 276.185)" fill="white" stroke="black"/>
<rect x="272.79" y="596.776" width="34" height="34" transform="rotate(65.6118 272.79 596.776)" fill="white" stroke="black"/>
<rect x="200.116" y="436.48" width="34" height="34" transform="rotate(65.6118 200.116 436.48)" fill="white" stroke="black"/>
<rect x="345.463" y="757.071" width="34" height="34" transform="rotate(65.6118 345.463 757.071)" fill="white" stroke="black"/>
<rect x="163.78" y="356.333" width="34" height="34" transform="rotate(65.6118 163.78 356.333)" fill="white" stroke="black"/>
<rect x="309.126" y="676.923" width="34" height="34" transform="rotate(65.6118 309.126 676.923)" fill="white" stroke="black"/>
<rect x="236.453" y="516.628" width="34" height="34" transform="rotate(65.6118 236.453 516.628)" fill="white" stroke="black"/>
<rect x="381.799" y="837.219" width="34" height="34" transform="rotate(65.6118 381.799 837.219)" fill="white" stroke="black"/>
<rect x="58.0403" y="241.772" width="725" height="63" transform="rotate(65.6118 58.0403 241.772)" fill="white" stroke="black"/>
<rect x="51.8962" y="262.125" width="34" height="34" transform="rotate(65.6118 51.8962 262.125)" fill="white" stroke="black"/>
<rect x="197.243" y="582.716" width="34" height="34" transform="rotate(65.6118 197.243 582.716)" fill="white" stroke="black"/>
<rect x="124.569" y="422.42" width="34" height="34" transform="rotate(65.6118 124.569 422.42)" fill="white" stroke="black"/>
<rect x="269.916" y="743.011" width="34" height="34" transform="rotate(65.6118 269.916 743.011)" fill="white" stroke="black"/>
<rect x="88.2328" y="342.273" width="34" height="34" transform="rotate(65.6118 88.2328 342.273)" fill="white" stroke="black"/>
<rect x="233.579" y="662.863" width="34" height="34" transform="rotate(65.6118 233.579 662.863)" fill="white" stroke="black"/>
<rect x="160.906" y="502.568" width="34" height="34" transform="rotate(65.6118 160.906 502.568)" fill="white" stroke="black"/>
<rect x="306.253" y="823.159" width="34" height="34" transform="rotate(65.6118 306.253 823.159)" fill="white" stroke="black"/>
<rect x="70.0644" y="302.199" width="34" height="34" transform="rotate(65.6118 70.0644 302.199)" fill="white" stroke="black"/>
<rect x="215.411" y="622.789" width="34" height="34" transform="rotate(65.6118 215.411 622.789)" fill="white" stroke="black"/>
<rect x="142.738" y="462.494" width="34" height="34" transform="rotate(65.6118 142.738 462.494)" fill="white" stroke="black"/>
<rect x="288.084" y="783.085" width="34" height="34" transform="rotate(65.6118 288.084 783.085)" fill="white" stroke="black"/>
<rect x="106.401" y="382.346" width="34" height="34" transform="rotate(65.6118 106.401 382.346)" fill="white" stroke="black"/>
<rect x="251.748" y="702.937" width="34" height="34" transform="rotate(65.6118 251.748 702.937)" fill="white" stroke="black"/>
<rect x="179.074" y="542.642" width="34" height="34" transform="rotate(65.6118 179.074 542.642)" fill="white" stroke="black"/>
<rect x="324.421" y="863.232" width="34" height="34" transform="rotate(65.6118 324.421 863.232)" fill="white" stroke="black"/>
<ellipse cx="1210" cy="283" rx="287" ry="283" fill="#2A5375"/>
</svg>
