<svg width="1768" height="1855" viewBox="0 0 1768 1855" fill="none" xmlns="http://www.w3.org/2000/svg">
<path d="M1111.11 1.77551C1122.34 0.595088 1133.66 0.595087 1144.89 1.77551L1244.17 12.21C1255.4 13.3904 1266.48 15.7448 1277.22 19.2345L1372.16 50.082C1382.9 53.5717 1393.24 58.1775 1403.02 63.8239L1489.47 113.736C1499.25 119.383 1508.41 126.039 1516.81 133.595L1590.99 200.391C1599.38 207.947 1606.96 216.362 1613.6 225.498L1672.27 306.258C1678.91 315.394 1684.57 325.201 1689.17 335.517L1729.77 426.712C1734.36 437.028 1737.86 447.798 1740.21 458.844L1760.96 556.487C1763.31 567.533 1764.49 578.795 1764.49 590.088V689.912C1764.49 701.205 1763.31 712.467 1760.96 723.513L1740.21 821.156C1737.86 832.202 1734.36 842.972 1729.77 853.288L1689.17 944.483C1684.57 954.799 1678.91 964.606 1672.27 973.742L1613.6 1054.5C1606.96 1063.64 1599.38 1072.05 1590.99 1079.61L1516.81 1146.41C1508.41 1153.96 1499.25 1160.62 1489.47 1166.26L1403.02 1216.18C1393.24 1221.82 1382.9 1226.43 1372.16 1229.92L1277.22 1260.77C1266.48 1264.26 1255.4 1266.61 1244.17 1267.79L1144.89 1278.22C1133.66 1279.4 1122.34 1279.4 1111.11 1278.22L1011.83 1267.79C1000.6 1266.61 989.522 1264.26 978.782 1260.77L883.843 1229.92C873.103 1226.43 862.758 1221.82 852.978 1216.18L766.527 1166.26C756.748 1160.62 747.587 1153.96 739.194 1146.41L665.01 1079.61C656.618 1072.05 649.041 1063.64 642.403 1054.5L583.728 973.742C577.09 964.606 571.428 954.799 566.835 944.483L526.232 853.288C521.639 842.972 518.14 832.202 515.792 821.156L495.037 723.513C492.69 712.467 491.506 701.205 491.506 689.912V590.088C491.506 578.795 492.69 567.533 495.037 556.487L515.792 458.844C518.14 447.798 521.639 437.028 526.232 426.712L566.835 335.517C571.428 325.201 577.09 315.394 583.728 306.258L642.403 225.498C649.041 216.362 656.618 207.947 665.01 200.391L739.194 133.595C747.587 126.039 756.748 119.383 766.528 113.736L852.978 63.8239C862.758 58.1775 873.103 53.5717 883.843 50.082L978.782 19.2345C989.522 15.7448 1000.6 13.3904 1011.83 12.21L1111.11 1.77551Z" fill="#D9D9D9"/>
<path d="M713.57 1369L761.751 1382.36L748.386 1430.55L700.206 1417.18L713.57 1369Z" fill="white"/>
<path d="M695.929 1432.6L744.11 1445.96L730.745 1494.14L682.564 1480.78L695.929 1432.6Z" fill="white"/>
<path d="M678.288 1496.2L726.469 1509.56L713.104 1557.74L664.923 1544.38L678.288 1496.2Z" fill="white"/>
<path d="M660.647 1559.8L708.828 1573.16L695.463 1621.34L647.282 1607.98L660.647 1559.8Z" fill="white"/>
<path d="M643.006 1623.39L691.186 1636.76L677.822 1684.94L629.641 1671.58L643.006 1623.39Z" fill="white"/>
<path d="M625.364 1686.99L673.545 1700.36L660.181 1748.54L612 1735.17L625.364 1686.99Z" fill="white"/>
<path d="M777.169 1386.64L825.35 1400.01L811.985 1448.19L763.804 1434.82L777.169 1386.64Z" fill="white"/>
<path d="M759.528 1450.24L807.708 1463.6L794.344 1511.79L746.163 1498.42L759.528 1450.24Z" fill="white"/>
<path d="M741.887 1513.84L790.067 1527.2L776.703 1575.38L728.522 1562.02L741.887 1513.84Z" fill="white"/>
<path d="M724.245 1577.44L772.426 1590.8L759.062 1638.98L710.881 1625.62L724.245 1577.44Z" fill="white"/>
<path d="M706.604 1641.04L754.785 1654.4L741.421 1702.58L693.24 1689.22L706.604 1641.04Z" fill="white"/>
<path d="M688.963 1704.63L737.144 1718L723.779 1766.18L675.599 1752.82L688.963 1704.63Z" fill="white"/>
<path d="M840.767 1404.28L888.948 1417.65L875.584 1465.83L827.403 1452.46L840.767 1404.28Z" fill="#FF0909"/>
<path d="M823.126 1467.88L871.307 1481.25L857.943 1529.43L809.762 1516.06L823.126 1467.88Z" fill="white"/>
<path d="M805.485 1531.48L853.666 1544.84L840.302 1593.02L792.121 1579.66L805.485 1531.48Z" fill="white"/>
<path d="M787.844 1595.08L836.025 1608.44L822.66 1656.62L774.48 1643.26L787.844 1595.08Z" fill="white"/>
<path d="M770.203 1658.68L818.384 1672.04L805.019 1720.22L756.838 1706.86L770.203 1658.68Z" fill="white"/>
<path d="M752.562 1722.28L800.743 1735.64L787.378 1783.82L739.197 1770.46L752.562 1722.28Z" fill="white"/>
<path d="M904.366 1421.92L952.547 1435.29L939.182 1483.47L891.002 1470.1L904.366 1421.92Z" fill="white"/>
<path d="M886.725 1485.52L934.906 1498.89L921.541 1547.07L873.36 1533.7L886.725 1485.52Z" fill="white"/>
<path d="M869.084 1549.12L917.265 1562.49L903.9 1610.67L855.719 1597.3L869.084 1549.12Z" fill="white"/>
<path d="M851.443 1612.72L899.624 1626.08L886.259 1674.26L838.078 1660.9L851.443 1612.72Z" fill="white"/>
<path d="M833.802 1676.32L881.982 1689.68L868.618 1737.86L820.437 1724.5L833.802 1676.32Z" fill="white"/>
<path d="M816.161 1739.92L864.341 1753.28L850.977 1801.46L802.796 1788.1L816.161 1739.92Z" fill="white"/>
<path d="M967.965 1439.56L1016.15 1452.93L1002.78 1501.11L954.6 1487.75L967.965 1439.56Z" fill="white"/>
<path d="M950.324 1503.16L998.504 1516.53L985.14 1564.71L936.959 1551.34L950.324 1503.16Z" fill="white"/>
<path d="M932.683 1566.76L980.863 1580.13L967.499 1628.31L919.318 1614.94L932.683 1566.76Z" fill="white"/>
<path d="M915.041 1630.36L963.222 1643.72L949.858 1691.91L901.677 1678.54L915.041 1630.36Z" fill="white"/>
<path d="M897.4 1693.96L945.581 1707.32L932.217 1755.5L884.036 1742.14L897.4 1693.96Z" fill="white"/>
<path d="M879.759 1757.56L927.94 1770.92L914.576 1819.1L866.395 1805.74L879.759 1757.56Z" fill="white"/>
<path d="M1031.56 1457.21L1079.74 1470.57L1066.38 1518.75L1018.2 1505.39L1031.56 1457.21Z" fill="white"/>
<path d="M1013.92 1520.8L1062.1 1534.17L1048.74 1582.35L1000.56 1568.99L1013.92 1520.8Z" fill="white"/>
<path d="M996.281 1584.4L1044.46 1597.77L1031.1 1645.95L982.917 1632.58L996.281 1584.4Z" fill="white"/>
<path d="M978.64 1648L1026.82 1661.37L1013.46 1709.55L965.276 1696.18L978.64 1648Z" fill="white"/>
<path d="M960.999 1711.6L1009.18 1724.96L995.815 1773.15L947.634 1759.78L960.999 1711.6Z" fill="white"/>
<path d="M943.358 1775.2L991.539 1788.56L978.174 1836.74L929.993 1823.38L943.358 1775.2Z" fill="white"/>
<path d="M1095.16 1474.85L1143.34 1488.21L1129.98 1536.39L1081.8 1523.03L1095.16 1474.85Z" fill="white"/>
<path d="M1077.52 1538.45L1125.7 1551.81L1112.34 1599.99L1064.16 1586.63L1077.52 1538.45Z" fill="white"/>
<path d="M1059.88 1602.04L1108.06 1615.41L1094.7 1663.59L1046.52 1650.22L1059.88 1602.04Z" fill="white"/>
<path d="M1042.24 1665.64L1090.42 1679.01L1077.06 1727.19L1028.87 1713.82L1042.24 1665.64Z" fill="white"/>
<path d="M1024.6 1729.24L1072.78 1742.61L1059.41 1790.79L1011.23 1777.42L1024.6 1729.24Z" fill="white"/>
<path d="M1006.96 1792.84L1055.14 1806.2L1041.77 1854.39L993.592 1841.02L1006.96 1792.84Z" fill="white"/>
<path d="M430.707 370.536L424.715 420.176L375.075 414.184L381.067 364.544L430.707 370.536Z" fill="#F40F0F"/>
<path d="M365.182 362.627L359.191 412.267L309.551 406.275L315.543 356.635L365.182 362.627Z" fill="#F40F0F"/>
<path d="M299.658 354.718L293.666 404.358L244.027 398.366L250.018 348.727L299.658 354.718Z" fill="#F40F0F"/>
<path d="M234.133 346.809L228.142 396.449L178.502 390.457L184.494 340.818L234.133 346.809Z" fill="#F40F0F"/>
<path d="M168.609 338.9L162.617 388.54L112.978 382.549L118.969 332.909L168.609 338.9Z" fill="#F40F0F"/>
<path d="M103.085 330.992L97.0931 380.631L47.4534 374.64L53.4449 325L103.085 330.992Z" fill="#F40F0F"/>
<path d="M422.798 436.06L416.806 485.7L367.167 479.709L373.158 430.069L422.798 436.06Z" fill="#F40F0F"/>
<path d="M357.273 428.151L351.282 477.791L301.642 471.8L307.634 422.16L357.273 428.151Z" fill="#F40F0F"/>
<path d="M291.749 420.243L285.757 469.882L236.118 463.891L242.109 414.251L291.749 420.243Z" fill="#F40F0F"/>
<path d="M226.225 412.334L220.233 461.973L170.593 455.982L176.585 406.342L226.225 412.334Z" fill="#F40F0F"/>
<path d="M160.7 404.425L154.709 454.065L105.069 448.073L111.06 398.433L160.7 404.425Z" fill="#F40F0F"/>
<path d="M95.1758 396.516L89.1842 446.156L39.5445 440.164L45.5361 390.524L95.1758 396.516Z" fill="#F40F0F"/>
<path d="M414.889 501.585L408.897 551.225L359.258 545.233L365.249 495.593L414.889 501.585Z" fill="#FF0909"/>
<path d="M349.365 493.676L343.373 543.316L293.733 537.324L299.725 487.684L349.365 493.676Z" fill="#F40F0F"/>
<path d="M283.84 485.767L277.849 535.407L228.209 529.415L234.2 479.776L283.84 485.767Z" fill="#F40F0F"/>
<path d="M218.316 477.858L212.324 527.498L162.684 521.506L168.676 471.867L218.316 477.858Z" fill="#F40F0F"/>
<path d="M152.791 469.949L146.8 519.589L97.16 513.597L103.152 463.958L152.791 469.949Z" fill="#F40F0F"/>
<path d="M87.2669 462.04L81.2753 511.68L31.6356 505.689L37.6272 456.049L87.2669 462.04Z" fill="#F40F0F"/>
<path d="M406.98 567.109L400.988 616.749L351.349 610.757L357.34 561.118L406.98 567.109Z" fill="#F40F0F"/>
<path d="M341.456 559.2L335.464 608.84L285.824 602.848L291.816 553.209L341.456 559.2Z" fill="#F40F0F"/>
<path d="M275.931 551.292L269.94 600.931L220.3 594.94L226.292 545.3L275.931 551.292Z" fill="#F40F0F"/>
<path d="M210.407 543.383L204.415 593.022L154.776 587.031L160.767 537.391L210.407 543.383Z" fill="#F40F0F"/>
<path d="M144.882 535.474L138.891 585.113L89.2511 579.122L95.2427 529.482L144.882 535.474Z" fill="#F40F0F"/>
<path d="M79.358 527.565L73.3664 577.205L23.7267 571.213L29.7183 521.573L79.358 527.565Z" fill="#F40F0F"/>
<path d="M399.071 632.634L393.08 682.273L343.44 676.282L349.431 626.642L399.071 632.634Z" fill="#F40F0F"/>
<path d="M333.547 624.725L327.555 674.364L277.915 668.373L283.907 618.733L333.547 624.725Z" fill="#F40F0F"/>
<path d="M268.022 616.816L262.031 666.456L212.391 660.464L218.383 610.824L268.022 616.816Z" fill="#F40F0F"/>
<path d="M202.498 608.907L196.506 658.547L146.867 652.555L152.858 602.915L202.498 608.907Z" fill="#F40F0F"/>
<path d="M136.974 600.998L130.982 650.638L81.3422 644.646L87.3338 595.007L136.974 600.998Z" fill="#F40F0F"/>
<path d="M71.4491 593.089L65.4575 642.729L15.8178 636.737L21.8094 587.098L71.4491 593.089Z" fill="#F40F0F"/>
<path d="M391.162 698.158L385.171 747.798L335.531 741.806L341.523 692.166L391.162 698.158Z" fill="#F40F0F"/>
<path d="M325.638 690.249L319.646 739.889L270.007 733.897L275.998 684.258L325.638 690.249Z" fill="#F40F0F"/>
<path d="M260.113 682.34L254.122 731.98L204.482 725.988L210.474 676.349L260.113 682.34Z" fill="#F40F0F"/>
<path d="M194.589 674.431L188.597 724.071L138.958 718.08L144.949 668.44L194.589 674.431Z" fill="#F40F0F"/>
<path d="M129.065 666.523L123.073 716.162L73.4333 710.171L79.4249 660.531L129.065 666.523Z" fill="#F40F0F"/>
<path d="M63.5402 658.614L57.5486 708.253L7.90893 702.262L13.9005 652.622L63.5402 658.614Z" fill="#F40F0F"/>
<path d="M383.253 763.682L377.262 813.322L327.622 807.331L333.614 757.691L383.253 763.682Z" fill="#F40F0F"/>
<path d="M317.729 755.774L311.737 805.413L262.098 799.422L268.089 749.782L317.729 755.774Z" fill="#F40F0F"/>
<path d="M252.205 747.865L246.213 797.504L196.573 791.513L202.565 741.873L252.205 747.865Z" fill="#F40F0F"/>
<path d="M186.68 739.956L180.689 789.596L131.049 783.604L137.04 733.964L186.68 739.956Z" fill="#F40F0F"/>
<path d="M121.156 732.047L115.164 781.687L65.5244 775.695L71.516 726.055L121.156 732.047Z" fill="#F40F0F"/>
</svg>
